<?xml version="1.0" encoding="utf-8"?><svg xmlns="http://www.w3.org/2000/svg" xmlns:xlink="http://www.w3.org/1999/xlink"><symbol viewBox="0 0 208 75" id="logo" xmlns="http://www.w3.org/2000/svg"><path d="M43.94 45.036v7.986c-.347 2.908-1.928 5.268-4.788 7.08-2.817 1.791-6.284 2.676-10.4 2.676-4.074 0-7.41-.864-9.989-2.57-2.535-1.707-3.813-3.856-3.813-6.511 0-2.319.953-4.173 2.86-5.605 1.907-1.412 5.07-2.614 9.533-3.562l9.577-2.023c13.477-2.802 20.215-9.46 20.215-19.954 0-6.532-2.622-11.842-7.887-15.91C44.027 2.64 37.288.66 29.033.66c-8.493 0-15.275 1.96-20.366 5.9C3.64 10.458 1.062 15.663.932 22.173H15.34c.238-3.013 1.603-5.373 4.117-7.143 2.47-1.707 5.655-2.57 9.533-2.57 3.813 0 6.868.8 9.165 2.423 2.34 1.622 3.51 3.75 3.51 6.384 0 2.17-.953 3.962-2.86 5.353-1.864 1.327-4.918 2.465-9.165 3.413l-8.905 1.834c-7.367 1.516-12.74 3.898-16.098 7.143-3.38 3.182-5.07 7.501-5.07 12.958 0 6.933 2.686 12.433 8.038 16.5 5.373 4.087 12.61 6.152 21.753 6.152 8.862 0 15.903-1.917 21.147-5.752 5.265-3.856 8.017-9.145 8.255-15.846V33.784c-2.492 4.446-7.02 8.555-14.82 11.252zm31.265-16.794c-1.127-1.222-1.69-2.887-1.69-4.994 0-2.086.563-3.73 1.69-4.973 1.127-1.243 2.622-1.854 4.528-1.854 1.495 0 2.752.4 3.814 1.201 1.04.8 1.69 1.875 1.906 3.182h-2.101a3.339 3.339 0 00-1.3-1.876c-.65-.463-1.43-.695-2.297-.695-1.235 0-2.21.464-2.947 1.37-.736.906-1.105 2.128-1.105 3.645 0 1.538.369 2.76 1.105 3.667.737.906 1.712 1.37 2.969 1.37.91 0 1.668-.212 2.296-.612.629-.4 1.062-.97 1.3-1.707h2.102c-.303 1.307-.932 2.318-1.928 3.056-.997.737-2.254 1.096-3.792 1.096-1.907-.022-3.423-.633-4.55-1.876zm15.145 1.601v-11.42h-4.225v-1.77h10.552v1.77h-4.225v11.42H90.35zm8.905-.02v-1.77c.217.063.477.084.78.084.91 0 1.625-.4 2.102-1.222l-4.572-10.241h2.232l3.423 8.091h.065l3.315-8.091h2.188l-4.138 9.398c-.628 1.433-1.278 2.444-1.907 2.992-.671.59-1.516.885-2.578.885-.455 0-.737-.042-.91-.127zm11.267 2.634h-1.928v-4.384h.975c.823-.463 1.3-1.6 1.408-3.413l.498-7.986h8.819v11.4h1.69v4.383h-1.929v-2.592H110.5v2.592h.022zm2.405-7.713c-.108 1.58-.412 2.655-.932 3.245v.063h6.197v-9.65h-4.853l-.412 6.342zm20.02-4.804h-.13l-6.89 9.903h-2.037v-13.17h2.08v9.947h.13l6.89-9.946h2.037v13.17h-2.08V19.94zm6.391 9.903h-2.405l3.77-5.225c-.931-.232-1.69-.695-2.253-1.37-.563-.695-.845-1.517-.845-2.465 0-1.222.412-2.213 1.257-2.971.845-.759 1.95-1.138 3.293-1.138h5.265v13.17h-2.102v-4.952h-2.448l-3.532 4.951zm6.002-11.441h-2.752c-.888 0-1.581.21-2.08.632-.498.421-.736 1.011-.736 1.77 0 .759.238 1.37.736 1.77.499.421 1.17.632 2.08.632h2.752v-4.804zM82.615 39.389c2.015 0 3.662.59 4.918 1.791 1.257 1.201 1.885 2.782 1.885 4.741 0 1.96-.65 3.54-1.95 4.741-1.3 1.201-2.99 1.791-5.07 1.791H78.52v6.027h-4.117V39.368h8.212v.02zm-4.095 9.946h2.99c1.17 0 2.102-.295 2.752-.885.65-.59.975-1.433.975-2.508 0-1.095-.325-1.917-.975-2.507-.65-.59-1.56-.864-2.73-.864h-2.99v6.764h-.022zm26.758 9.165H92.257V39.39h13.021v3.287h-8.904v4.615h8.406v3.076h-8.406v4.805h8.904V58.5zm24.18 0h-3.661V45.606h-.109l-5.33 12.706h-2.578l-5.33-12.706h-.108v12.896h-3.662V39.389h4.767l5.59 13.549h.108l5.59-13.55h4.767v19.113h-.044zm19.63-16.793c1.712 1.77 2.557 4.193 2.557 7.227 0 3.034-.845 5.437-2.557 7.207-1.711 1.77-4.008 2.655-6.911 2.655-2.904 0-5.222-.885-6.912-2.655-1.712-1.77-2.557-4.173-2.557-7.207 0-3.055.845-5.457 2.557-7.227 1.69-1.77 4.008-2.655 6.912-2.655 2.903 0 5.2.885 6.911 2.655zm-10.768 2.465c-.953 1.18-1.452 2.781-1.452 4.783 0 2.002.477 3.583 1.43 4.763.954 1.18 2.232 1.77 3.857 1.77 1.603 0 2.882-.59 3.835-1.77.953-1.18 1.43-2.782 1.43-4.763 0-2.002-.477-3.603-1.43-4.783-.953-1.18-2.232-1.77-3.835-1.77-1.603-.02-2.882.57-3.835 1.77zM167.592 58.5v-8.048h-8.84V58.5h-4.117V39.389h4.117v7.754h8.84V39.39h4.117V58.5h-4.117zm12.719 0V42.698h-5.742V39.41h15.622v3.287h-5.764v15.804h-4.116zm21.817-4.635h-6.911l-1.495 4.636h-4.226l6.825-19.112h4.832l6.826 19.112h-4.378l-1.473-4.636zm-6.022-2.992h5.135l-2.513-7.818h-.088l-2.534 7.818z"/></symbol><symbol viewBox="0 0 19 19" id="plane" xmlns="http://www.w3.org/2000/svg"><path d="M18.903.778a.284.284 0 00-.307-.044L.164 9.298a.284.284 0 00-.005.513l5.216 2.56c.096.046.21.036.295-.028l5.072-3.79-3.982 4.095a.284.284 0 00-.08.22l.397 5.162a.284.284 0 00.499.164l2.768-3.208 3.423 1.635a.284.284 0 00.393-.171l4.827-15.373a.284.284 0 00-.084-.299z"/><defs><clipPath id="bclip0"><path d="M0 0h19v19H0z"/></clipPath></defs></symbol></svg>