<svg width="1423" height="264" viewBox="0 0 1423 264" fill="none" xmlns="http://www.w3.org/2000/svg">
<path d="M173.188 259H217.812L133.812 22.2578H86.0703L2.07031 259H45.7109L65.8906 197.805H153.008L173.188 259ZM108.875 64.0938H110.023L143 165.156H75.7344L108.875 64.0938ZM307.883 229.633C288.852 229.633 276.383 220.445 276.383 206.008C276.383 191.406 288.195 182.875 310.508 181.398L351.523 178.773V192.391C351.523 214.211 332.656 229.633 307.883 229.633ZM295.906 260.969C319.695 260.969 341.844 249.32 351.688 230.125H352.672V259H391.883V136.117C391.883 100.516 362.844 77.2188 318.055 77.2188C275.891 77.2188 245.375 100.68 244.391 133.492H282.125C284.914 119.055 298.203 109.375 316.742 109.375C338.727 109.375 351.523 119.711 351.523 138.742V151.867L304.93 154.656C259.812 157.445 235.367 175.656 235.367 207.648C235.367 239.477 260.633 260.969 295.906 260.969Z" fill="#2972C6"/>
<path d="M173.188 259L172.238 259.313L172.464 260H173.188V259ZM217.812 259V260H219.228L218.755 258.666L217.812 259ZM133.812 22.2578L134.755 21.9234L134.519 21.2578H133.812V22.2578ZM86.0703 22.2578V21.2578H85.364L85.1279 21.9234L86.0703 22.2578ZM2.07031 259L1.12788 258.666L0.654414 260H2.07031V259ZM45.7109 259V260H46.4341L46.6606 259.313L45.7109 259ZM65.8906 197.805V196.805H65.1674L64.9409 197.492L65.8906 197.805ZM153.008 197.805L153.958 197.492L153.731 196.805H153.008V197.805ZM108.875 64.0938V63.0938H108.151L107.925 63.7822L108.875 64.0938ZM110.023 64.0938L110.974 63.7835L110.749 63.0938H110.023V64.0938ZM143 165.156V166.156H144.378L143.951 164.846L143 165.156ZM75.7344 165.156L74.7842 164.845L74.3541 166.156H75.7344V165.156ZM173.188 260H217.812V258H173.188V260ZM218.755 258.666L134.755 21.9234L132.87 22.5922L216.87 259.334L218.755 258.666ZM133.812 21.2578H86.0703V23.2578H133.812V21.2578ZM85.1279 21.9234L1.12788 258.666L3.01275 259.334L87.0127 22.5922L85.1279 21.9234ZM2.07031 260H45.7109V258H2.07031V260ZM46.6606 259.313L66.8403 198.118L64.9409 197.492L44.7612 258.687L46.6606 259.313ZM65.8906 198.805H153.008V196.805H65.8906V198.805ZM152.058 198.118L172.238 259.313L174.137 258.687L153.958 197.492L152.058 198.118ZM108.875 65.0938H110.023V63.0938H108.875V65.0938ZM109.073 64.404L142.049 165.466L143.951 164.846L110.974 63.7835L109.073 64.404ZM143 164.156H75.7344V166.156H143V164.156ZM76.6846 165.468L109.825 64.4053L107.925 63.7822L74.7842 164.845L76.6846 165.468ZM310.508 181.398L310.444 180.4L310.442 180.401L310.508 181.398ZM351.523 178.773H352.523V177.707L351.46 177.775L351.523 178.773ZM351.688 230.125V229.125H351.076L350.798 229.669L351.688 230.125ZM352.672 230.125H353.672V229.125H352.672V230.125ZM352.672 259H351.672V260H352.672V259ZM391.883 259V260H392.883V259H391.883ZM244.391 133.492L243.391 133.462L243.36 134.492H244.391V133.492ZM282.125 133.492V134.492H282.95L283.107 133.682L282.125 133.492ZM351.523 151.867L351.583 152.865L352.523 152.809V151.867H351.523ZM304.93 154.656L304.87 153.658L304.868 153.658L304.93 154.656ZM307.883 228.633C298.515 228.633 290.87 226.37 285.594 222.433C280.346 218.516 277.383 212.904 277.383 206.008H275.383C275.383 213.549 278.654 219.749 284.398 224.036C290.114 228.302 298.219 230.633 307.883 230.633V228.633ZM277.383 206.008C277.383 199.022 280.187 193.543 285.663 189.592C291.191 185.604 299.509 183.128 310.574 182.396L310.442 180.401C299.194 181.145 290.45 183.673 284.493 187.97C278.485 192.305 275.383 198.392 275.383 206.008H277.383ZM310.572 182.396L351.587 179.771L351.46 177.775L310.444 180.4L310.572 182.396ZM350.523 178.773V192.391H352.523V178.773H350.523ZM350.523 192.391C350.523 213.505 332.271 228.633 307.883 228.633V230.633C333.041 230.633 352.523 214.917 352.523 192.391H350.523ZM295.906 261.969C319.99 261.969 342.529 250.176 352.577 230.581L350.798 229.669C341.159 248.465 319.4 259.969 295.906 259.969V261.969ZM351.688 231.125H352.672V229.125H351.688V231.125ZM351.672 230.125V259H353.672V230.125H351.672ZM352.672 260H391.883V258H352.672V260ZM392.883 259V136.117H390.883V259H392.883ZM392.883 136.117C392.883 118.019 385.489 103.004 372.389 92.5361C359.31 82.0852 340.613 76.2188 318.055 76.2188V78.2188C340.285 78.2188 358.503 84.0008 371.14 94.0986C383.757 104.179 390.883 118.614 390.883 136.117H392.883ZM318.055 76.2188C275.58 76.2188 244.398 99.9054 243.391 133.462L245.39 133.522C246.352 101.454 276.201 78.2188 318.055 78.2188V76.2188ZM244.391 134.492H282.125V132.492H244.391V134.492ZM283.107 133.682C285.781 119.837 298.546 110.375 316.742 110.375V108.375C297.861 108.375 284.047 118.272 281.143 133.303L283.107 133.682ZM316.742 110.375C327.594 110.375 336.029 112.927 341.736 117.69C347.415 122.429 350.523 129.466 350.523 138.742H352.523C352.523 128.987 349.233 121.341 343.018 116.154C336.83 110.991 327.875 108.375 316.742 108.375V110.375ZM350.523 138.742V151.867H352.523V138.742H350.523ZM351.464 150.869L304.87 153.658L304.989 155.654L351.583 152.865L351.464 150.869ZM304.868 153.658C282.209 155.059 264.596 160.338 252.626 169.404C240.609 178.506 234.367 191.361 234.367 207.648H236.367C236.367 191.944 242.348 179.697 253.833 170.998C265.365 162.264 282.533 157.043 304.991 155.654L304.868 153.658ZM234.367 207.648C234.367 223.845 240.804 237.452 251.752 246.998C262.689 256.534 278.07 261.969 295.906 261.969V259.969C278.469 259.969 263.581 254.658 253.066 245.49C242.563 236.333 236.367 223.28 236.367 207.648H234.367ZM700.648 113.148H699.648V114.148H700.648V113.148ZM700.648 57.8594V56.8594H699.648V57.8594H700.648ZM808.766 57.8594V58.8594H809.766V57.8594H808.766ZM808.766 22.2578H809.766V21.2578H808.766V22.2578ZM658.32 22.2578V21.2578H657.32V22.2578H658.32ZM658.32 259H657.32V260H658.32V259ZM700.648 224.219H699.648V225.219H700.648V224.219ZM700.648 146.945V145.945H699.648V146.945H700.648ZM832.242 185.664C832.242 163.817 823.803 145.412 809.287 132.479C794.781 119.554 774.269 112.148 750.195 112.148V114.148C773.863 114.148 793.875 121.426 807.957 133.972C822.029 146.51 830.242 164.363 830.242 185.664H832.242ZM750.195 112.148H700.648V114.148H750.195V112.148ZM701.648 113.148V57.8594H699.648V113.148H701.648ZM700.648 58.8594H808.766V56.8594H700.648V58.8594ZM809.766 57.8594V22.2578H807.766V57.8594H809.766ZM808.766 21.2578H658.32V23.2578H808.766V21.2578ZM657.32 22.2578V259H659.32V22.2578H657.32ZM658.32 260H751.508V258H658.32V260ZM751.508 260C775.259 260 795.447 252.55 809.707 239.496C823.976 226.436 832.242 207.828 832.242 185.664H830.242C830.242 207.305 822.184 225.365 808.357 238.021C794.522 250.685 774.842 258 751.508 258V260ZM701.648 224.219V146.945H699.648V224.219H701.648ZM700.648 147.945H740.68V145.945H700.648V147.945ZM740.68 147.945C755.558 147.945 767.114 151.321 774.933 157.668C782.72 163.988 786.93 173.36 786.93 185.664H788.93C788.93 172.866 784.526 162.879 776.194 156.115C767.893 149.378 755.825 145.945 740.68 145.945V147.945ZM786.93 185.664C786.93 197.884 782.721 207.215 774.954 213.516C767.155 219.843 755.639 223.219 740.844 223.219V225.219C755.908 225.219 767.935 221.786 776.214 215.07C784.525 208.328 788.93 198.382 788.93 185.664H786.93ZM740.844 223.219H700.648V225.219H740.844V223.219ZM893.75 118.07V119.07H894.349L894.632 118.542L893.75 118.07ZM892.438 118.07L891.446 117.94L891.298 119.07H892.438V118.07ZM961.016 44.5703L960.987 43.5707L960.981 43.5709L961.016 44.5703ZM977.914 44.0781L977.943 45.0777L977.95 45.0775L977.914 44.0781ZM1022.54 35.2188L1023.2 35.9713L1023.54 35.6725V35.2188H1022.54ZM1022.54 2.24219H1023.54V0.57324L1022.07 1.3604L1022.54 2.24219ZM975.617 10.6094L975.645 11.6091L975.657 11.6086L975.617 10.6094ZM957.898 11.1016L957.871 10.1019L957.862 10.1022L957.898 11.1016ZM947.727 263.609C974.692 263.609 996.629 254.836 1011.82 238.832C1027.01 222.834 1035.35 199.72 1035.35 171.227H1033.35C1033.35 199.334 1025.13 221.912 1010.37 237.455C995.621 252.992 974.246 261.609 947.727 261.609V263.609ZM1035.35 171.227C1035.35 144.699 1027.5 122.905 1013.45 107.732C999.393 92.5509 979.221 84.0938 954.781 84.0938V86.0938C978.74 86.0938 998.353 94.371 1011.98 109.091C1025.62 123.818 1033.35 145.09 1033.35 171.227H1035.35ZM954.781 84.0938C925.931 84.0938 904.391 96.0552 892.868 117.599L894.632 118.542C905.749 97.7573 926.538 86.0938 954.781 86.0938V84.0938ZM893.75 117.07H892.438V119.07H893.75V117.07ZM893.429 118.2C896.705 93.218 902.132 75.5105 912.404 63.8313C922.631 52.2034 937.817 46.3849 961.051 45.5697L960.981 43.5709C937.456 44.3964 921.634 50.3083 910.902 62.5105C900.215 74.6614 894.732 92.8836 891.446 117.94L893.429 118.2ZM961.045 45.5699L977.943 45.0777L977.885 43.0785L960.987 43.5707L961.045 45.5699ZM977.95 45.0775C989.488 44.6654 999.719 43.3054 1007.57 41.6103C1011.5 40.763 1014.85 39.829 1017.47 38.8819C1020.07 37.9469 1022.06 36.963 1023.2 35.9713L1021.88 34.4662C1021.05 35.1972 1019.35 36.0794 1016.8 37.0004C1014.28 37.9093 1011.02 38.821 1007.15 39.6553C999.422 41.3235 989.309 42.6705 977.878 43.0788L977.95 45.0775ZM1023.54 35.2188V2.24219H1021.54V35.2188H1023.54ZM1022.07 1.3604C1018.69 3.1683 1012.18 5.034 1003.88 6.54949C995.623 8.05842 985.703 9.20186 975.577 9.61019L975.657 11.6086C985.875 11.1966 995.888 10.0431 1004.24 8.51692C1012.56 6.99725 1019.34 5.08951 1023.01 3.12397L1022.07 1.3604ZM975.589 9.60976L957.871 10.1019L957.926 12.1012L975.645 11.609L975.589 9.60976ZM957.862 10.1022C924.02 11.3403 899.232 22.0911 882.963 45.4549C866.747 68.7419 859.117 104.394 859.117 155.148H861.117C861.117 104.512 868.745 69.3714 884.604 46.5978C900.409 23.9011 924.511 13.3237 957.935 12.1009L957.862 10.1022ZM859.117 155.148C859.117 190.63 866.894 217.758 881.924 236.031C896.981 254.337 919.196 263.609 947.727 263.609V261.609C919.656 261.609 898.066 252.507 883.469 234.76C868.844 216.98 861.117 190.378 861.117 155.148H859.117ZM947.234 228.305C933.141 228.305 922.127 223.244 914.61 213.774C907.067 204.27 902.953 190.206 902.953 172.047H900.953C900.953 190.474 905.124 205.039 913.044 215.017C920.99 225.029 932.616 230.305 947.234 230.305V228.305ZM902.953 172.047C902.953 154.717 907.063 141.233 914.599 132.098C922.111 122.991 933.129 118.086 947.234 118.086V116.086C932.629 116.086 921.006 121.188 913.056 130.826C905.128 140.435 900.953 154.431 900.953 172.047H902.953ZM947.234 118.086C961.256 118.086 972.275 122.99 979.81 132.099C987.366 141.235 991.516 154.72 991.516 172.047H993.516C993.516 154.429 989.298 140.433 981.351 130.825C973.381 121.189 961.759 116.086 947.234 116.086V118.086ZM991.516 172.047C991.516 190.206 987.401 204.27 979.858 213.774C972.342 223.244 961.327 228.305 947.234 228.305V230.305C961.852 230.305 973.479 225.029 981.425 215.017C989.345 205.039 993.516 190.474 993.516 172.047H991.516ZM1421.7 134.148H1420.7V135.056L1421.61 135.144L1421.7 134.148ZM1421.7 132.836L1421.54 131.849L1420.7 131.985V132.836H1421.7ZM1293.9 22.2578V21.2578H1292.9V22.2578H1293.9ZM1293.9 259H1292.9V260H1293.9V259ZM1336.23 55.2344V54.2344H1335.23V55.2344H1336.23ZM1336.23 122.008H1335.23V123.008H1336.23V122.008ZM1336.23 226.023H1335.23V227.023H1336.23V226.023ZM1336.23 152.031V151.031H1335.23V152.031H1336.23ZM1395.12 260C1420.55 260 1441.14 253.562 1455.4 241.765C1469.68 229.948 1477.5 212.837 1477.5 191.734H1475.5C1475.5 212.303 1467.9 228.825 1454.12 240.224C1440.33 251.641 1420.23 258 1395.12 258V260ZM1477.5 191.734C1477.5 159.835 1454.42 136.315 1421.8 133.153L1421.61 135.144C1453.3 138.216 1475.5 160.962 1475.5 191.734H1477.5ZM1422.7 134.148V132.836H1420.7V134.148H1422.7ZM1421.86 133.823C1446.64 129.806 1465.85 107.231 1465.85 81.3203H1463.85C1463.85 106.269 1445.33 127.991 1421.54 131.849L1421.86 133.823ZM1465.85 81.3203C1465.85 63.0773 1458.8 48.0236 1446.26 37.5478C1433.73 27.0874 1415.8 21.2578 1394.14 21.2578V23.2578C1415.46 23.2578 1432.89 28.9947 1444.97 39.083C1457.04 49.1561 1463.85 63.6337 1463.85 81.3203H1465.85ZM1394.14 21.2578H1293.9V23.2578H1394.14V21.2578ZM1292.9 22.2578V259H1294.9V22.2578H1292.9ZM1293.9 260H1395.12V258H1293.9V260ZM1336.23 56.2344H1383.64V54.2344H1336.23V56.2344ZM1383.64 56.2344C1396.05 56.2344 1405.64 59.116 1412.11 64.416C1418.54 69.6917 1422.02 77.4668 1422.02 87.5547H1424.02C1424.02 76.9707 1420.35 68.5856 1413.38 62.8691C1406.43 57.1769 1396.33 54.2344 1383.64 54.2344V56.2344ZM1422.02 87.5547C1422.02 98.2658 1418 106.568 1410.44 112.225C1402.84 117.913 1391.56 121.008 1376.91 121.008V123.008C1391.8 123.008 1403.57 119.868 1411.64 113.826C1419.75 107.752 1424.02 98.8279 1424.02 87.5547H1422.02ZM1376.91 121.008H1336.23V123.008H1376.91V121.008ZM1337.23 122.008V55.2344H1335.23V122.008H1337.23ZM1337.23 226.023V152.031H1335.23V226.023H1337.23ZM1336.23 153.031H1383.8V151.031H1336.23V153.031ZM1383.8 153.031C1399.86 153.031 1411.96 156.173 1420.02 162.165C1428.03 168.119 1432.19 176.985 1432.19 188.781H1434.19C1434.19 176.46 1429.81 166.951 1421.21 160.56C1412.66 154.206 1400.07 151.031 1383.8 151.031V153.031ZM1432.19 188.781C1432.19 200.674 1428.14 209.668 1420.39 215.72C1412.6 221.804 1400.92 225.023 1385.45 225.023V227.023C1401.15 227.023 1413.34 223.763 1421.62 217.296C1429.95 210.797 1434.19 201.17 1434.19 188.781H1432.19ZM1385.45 225.023H1336.23V227.023H1385.45V225.023ZM1546.39 153.016H1545.39V154.016H1546.39V153.016ZM1546.39 107.898V106.898H1545.39V107.898H1546.39ZM1546.39 230.781H1545.39V231.781H1546.39V230.781ZM1546.39 179.594V178.594H1545.39V179.594H1546.39ZM1506.36 259H1505.36V260H1506.36V259ZM1616.77 165.156H1615.77V166.031L1616.64 166.147L1616.77 165.156ZM1616.77 163.844L1616.6 162.859L1615.77 163.004V163.844H1616.77ZM1506.36 79.6797V78.6797H1505.36V79.6797H1506.36ZM1581.34 108.898C1589.73 108.898 1596.11 110.876 1600.38 114.468C1604.62 118.037 1606.91 123.311 1606.91 130.211H1608.91C1608.91 122.838 1606.45 116.956 1601.67 112.937C1596.91 108.94 1590.01 106.898 1581.34 106.898V108.898ZM1606.91 130.211C1606.91 137.517 1604.51 142.892 1599.8 146.478C1595.05 150.103 1587.8 152.016 1577.89 152.016V154.016C1588 154.016 1595.76 152.073 1601.01 148.069C1606.32 144.026 1608.91 137.999 1608.91 130.211H1606.91ZM1577.89 152.016H1546.39V154.016H1577.89V152.016ZM1547.39 153.016V107.898H1545.39V153.016H1547.39ZM1546.39 108.898H1581.34V106.898H1546.39V108.898ZM1580.52 180.594C1591.91 180.594 1600.31 182.714 1605.84 186.816C1611.32 190.877 1614.13 196.987 1614.13 205.352H1616.13C1616.13 196.489 1613.12 189.721 1607.03 185.209C1601 180.739 1592.09 178.594 1580.52 178.594V180.594ZM1614.13 205.352C1614.13 213.4 1611.47 219.445 1606.48 223.504C1601.46 227.592 1593.92 229.781 1583.96 229.781V231.781C1594.18 231.781 1602.23 229.541 1607.75 225.056C1613.29 220.543 1616.13 213.874 1616.13 205.352H1614.13ZM1583.96 229.781H1546.39V231.781H1583.96V229.781ZM1547.39 230.781V179.594H1545.39V230.781H1547.39ZM1546.39 180.594H1580.52V178.594H1546.39V180.594ZM1506.36 260H1591.84V258H1506.36V260ZM1591.84 260C1611.68 260 1627.96 254.914 1639.3 245.75C1650.67 236.568 1656.98 223.357 1656.98 207.32H1654.98C1654.98 222.784 1648.92 235.412 1638.05 244.195C1627.16 252.996 1611.36 258 1591.84 258V260ZM1656.98 207.32C1656.98 184.282 1640.64 167.34 1616.91 164.165L1616.64 166.147C1639.5 169.206 1654.98 185.405 1654.98 207.32H1656.98ZM1617.77 165.156V163.844H1615.77V165.156H1617.77ZM1616.95 164.829C1635.18 161.622 1648.95 144.444 1648.95 125.289H1646.95C1646.95 143.541 1633.81 159.832 1616.6 162.859L1616.95 164.829ZM1648.95 125.289C1648.95 110.819 1643.41 99.1181 1633.29 91.0585C1623.2 83.021 1608.64 78.6797 1590.69 78.6797V80.6797C1608.34 80.6797 1622.41 84.9516 1632.04 92.6231C1641.65 100.273 1646.95 111.377 1646.95 125.289H1648.95ZM1590.69 78.6797H1506.36V80.6797H1590.69V78.6797ZM1505.36 79.6797V259H1507.36V79.6797H1505.36Z" fill="#2972C6"/>
</svg>
