<svg width="1416" height="53" viewBox="0 0 1416 53" fill="none" xmlns="http://www.w3.org/2000/svg">
<path d="M133.351 26.7246L132.824 29.3291H134.431L134.287 30.0879H132.667L132.072 33H131.307L131.908 30.0879H129.577L128.982 33H128.224L128.818 30.0879H127.253L127.396 29.3291H128.982L129.502 26.7246H128.012L128.162 25.9727H129.652L130.247 23.1221H131.006L130.425 25.9727H132.742L133.337 23.1221H134.096L133.508 25.9727H135.203L135.06 26.7246H133.351ZM129.728 29.3428H132.065L132.592 26.7178H130.261L129.728 29.3428ZM136.215 33V23.1357H142.066V23.9834H137.145V27.6885H141.67V28.5225H137.145V33H136.215ZM143.201 25.8975C143.206 25.0589 143.509 24.3617 144.11 23.8057C144.707 23.2542 145.457 22.9785 146.359 22.9785C147.221 22.9785 147.948 23.2383 148.54 23.7578C149.132 24.2773 149.429 24.9154 149.429 25.6719C149.429 26.2096 149.281 26.7314 148.984 27.2373C148.684 27.7386 148.123 28.4154 147.303 29.2676L144.555 32.1387V32.166H149.682V33H143.249V32.3438L146.735 28.6592C147.442 27.9163 147.911 27.349 148.144 26.957C148.381 26.5651 148.499 26.1549 148.499 25.7266C148.499 25.1888 148.289 24.7331 147.87 24.3594C147.451 23.9857 146.938 23.7988 146.332 23.7988C145.699 23.7988 145.17 23.9971 144.746 24.3936C144.327 24.7946 144.113 25.2959 144.104 25.8975V25.9043H143.201V25.8975ZM151.213 33V23.1357H157.064V23.9834H152.143V27.6885H156.668V28.5225H152.143V33H151.213ZM158.199 25.8975C158.204 25.0589 158.507 24.3617 159.108 23.8057C159.705 23.2542 160.455 22.9785 161.357 22.9785C162.219 22.9785 162.946 23.2383 163.538 23.7578C164.131 24.2773 164.427 24.9154 164.427 25.6719C164.427 26.2096 164.279 26.7314 163.982 27.2373C163.682 27.7386 163.121 28.4154 162.301 29.2676L159.553 32.1387V32.166H164.68V33H158.247V32.3438L161.733 28.6592C162.44 27.9163 162.909 27.349 163.142 26.957C163.379 26.5651 163.497 26.1549 163.497 25.7266C163.497 25.1888 163.287 24.7331 162.868 24.3594C162.449 23.9857 161.936 23.7988 161.33 23.7988C160.697 23.7988 160.168 23.9971 159.744 24.3936C159.325 24.7946 159.111 25.2959 159.102 25.8975V25.9043H158.199V25.8975ZM166.211 33V23.1357H172.062V23.9834H167.141V27.6885H171.666V28.5225H167.141V33H166.211ZM173.197 25.8975C173.202 25.0589 173.505 24.3617 174.106 23.8057C174.703 23.2542 175.453 22.9785 176.355 22.9785C177.217 22.9785 177.944 23.2383 178.536 23.7578C179.129 24.2773 179.425 24.9154 179.425 25.6719C179.425 26.2096 179.277 26.7314 178.98 27.2373C178.68 27.7386 178.119 28.4154 177.299 29.2676L174.551 32.1387V32.166H179.678V33H173.245V32.3438L176.731 28.6592C177.438 27.9163 177.907 27.349 178.14 26.957C178.377 26.5651 178.495 26.1549 178.495 25.7266C178.495 25.1888 178.285 24.7331 177.866 24.3594C177.447 23.9857 176.934 23.7988 176.328 23.7988C175.695 23.7988 175.166 23.9971 174.742 24.3936C174.323 24.7946 174.109 25.2959 174.1 25.8975V25.9043H173.197V25.8975Z" fill="#18181F"/>
<path d="M375.351 26.7246L374.824 29.3291H376.431L376.287 30.0879H374.667L374.072 33H373.307L373.908 30.0879H371.577L370.982 33H370.224L370.818 30.0879H369.253L369.396 29.3291H370.982L371.502 26.7246H370.012L370.162 25.9727H371.652L372.247 23.1221H373.006L372.425 25.9727H374.742L375.337 23.1221H376.096L375.508 25.9727H377.203L377.06 26.7246H375.351ZM371.728 29.3428H374.065L374.592 26.7178H372.261L371.728 29.3428ZM380.607 24.127H380.58L379.493 24.8926C378.764 25.403 378.244 25.7539 377.935 25.9453V24.9473C378.026 24.8926 378.472 24.585 379.274 24.0244C380.058 23.4821 380.498 23.1813 380.594 23.1221H381.51V33H380.607V24.127ZM383.902 25.8975C383.907 25.0589 384.21 24.3617 384.812 23.8057C385.409 23.2542 386.158 22.9785 387.061 22.9785C387.922 22.9785 388.649 23.2383 389.241 23.7578C389.834 24.2773 390.13 24.9154 390.13 25.6719C390.13 26.2096 389.982 26.7314 389.686 27.2373C389.385 27.7386 388.824 28.4154 388.004 29.2676L385.256 32.1387V32.166H390.383V33H383.95V32.3438L387.437 28.6592C388.143 27.9163 388.612 27.349 388.845 26.957C389.082 26.5651 389.2 26.1549 389.2 25.7266C389.2 25.1888 388.991 24.7331 388.571 24.3594C388.152 23.9857 387.639 23.7988 387.033 23.7988C386.4 23.7988 385.871 23.9971 385.447 24.3936C385.028 24.7946 384.814 25.2959 384.805 25.8975V25.9043H383.902V25.8975ZM394.307 24.127H394.279L393.192 24.8926C392.463 25.403 391.944 25.7539 391.634 25.9453V24.9473C391.725 24.8926 392.172 24.585 392.974 24.0244C393.757 23.4821 394.197 23.1813 394.293 23.1221H395.209V33H394.307V24.127ZM397.602 25.8975C397.606 25.0589 397.909 24.3617 398.511 23.8057C399.108 23.2542 399.857 22.9785 400.76 22.9785C401.621 22.9785 402.348 23.2383 402.94 23.7578C403.533 24.2773 403.829 24.9154 403.829 25.6719C403.829 26.2096 403.681 26.7314 403.385 27.2373C403.084 27.7386 402.523 28.4154 401.703 29.2676L398.955 32.1387V32.166H404.082V33H397.649V32.3438L401.136 28.6592C401.842 27.9163 402.312 27.349 402.544 26.957C402.781 26.5651 402.899 26.1549 402.899 25.7266C402.899 25.1888 402.69 24.7331 402.271 24.3594C401.851 23.9857 401.339 23.7988 400.732 23.7988C400.099 23.7988 399.57 23.9971 399.146 24.3936C398.727 24.7946 398.513 25.2959 398.504 25.8975V25.9043H397.602V25.8975ZM408.006 24.127H407.979L406.892 24.8926C406.162 25.403 405.643 25.7539 405.333 25.9453V24.9473C405.424 24.8926 405.871 24.585 406.673 24.0244C407.457 23.4821 407.896 23.1813 407.992 23.1221H408.908V33H408.006V24.127ZM416.626 23.9971V23.9697H411.137V23.1357H417.562V24.0107L413.044 33H412.053L416.626 23.9971Z" fill="#18181F"/>
<path d="M617.351 26.7246L616.824 29.3291H618.431L618.287 30.0879H616.667L616.072 33H615.307L615.908 30.0879H613.577L612.982 33H612.224L612.818 30.0879H611.253L611.396 29.3291H612.982L613.502 26.7246H612.012L612.162 25.9727H613.652L614.247 23.1221H615.006L614.425 25.9727H616.742L617.337 23.1221H618.096L617.508 25.9727H619.203L619.06 26.7246H617.351ZM613.728 29.3428H616.065L616.592 26.7178H614.261L613.728 29.3428ZM622.607 24.127H622.58L621.493 24.8926C620.764 25.403 620.244 25.7539 619.935 25.9453V24.9473C620.026 24.8926 620.472 24.585 621.274 24.0244C622.058 23.4821 622.498 23.1813 622.594 23.1221H623.51V33H622.607V24.127ZM629.266 33.1572C628.236 33.1572 627.39 32.8906 626.729 32.3574C626.078 31.8242 625.752 31.1452 625.752 30.3203C625.752 29.7005 625.955 29.1582 626.36 28.6934C626.766 28.2285 627.297 27.9255 627.953 27.7842V27.7637C627.393 27.6087 626.948 27.3353 626.62 26.9434C626.292 26.5469 626.128 26.0843 626.128 25.5557C626.128 24.8083 626.424 24.193 627.017 23.71C627.609 23.2223 628.359 22.9785 629.266 22.9785C630.177 22.9785 630.927 23.2223 631.515 23.71C632.103 24.193 632.396 24.8083 632.396 25.5557C632.396 26.0752 632.232 26.5332 631.904 26.9297C631.576 27.3262 631.134 27.6042 630.578 27.7637V27.7842C631.234 27.9255 631.765 28.2285 632.171 28.6934C632.576 29.1582 632.779 29.7005 632.779 30.3203C632.779 31.1497 632.453 31.8288 631.802 32.3574C631.146 32.8906 630.3 33.1572 629.266 33.1572ZM629.266 32.3369C630.022 32.3369 630.64 32.141 631.118 31.749C631.592 31.3617 631.829 30.8672 631.829 30.2656C631.829 29.6732 631.592 29.1878 631.118 28.8096C630.64 28.4313 630.022 28.2422 629.266 28.2422C628.514 28.2422 627.898 28.4313 627.42 28.8096C626.941 29.1878 626.702 29.6732 626.702 30.2656C626.702 30.8672 626.939 31.3617 627.413 31.749C627.892 32.141 628.509 32.3369 629.266 32.3369ZM629.266 27.4082C629.908 27.4082 630.437 27.2419 630.852 26.9092C631.262 26.5765 631.467 26.1504 631.467 25.6309C631.467 25.0977 631.264 24.6579 630.858 24.3115C630.448 23.9652 629.917 23.792 629.266 23.792C628.614 23.792 628.083 23.9652 627.673 24.3115C627.263 24.6579 627.058 25.0977 627.058 25.6309C627.058 26.1504 627.265 26.5765 627.68 26.9092C628.09 27.2419 628.618 27.4082 629.266 27.4082ZM636.689 24.127H636.662L635.575 24.8926C634.846 25.403 634.326 25.7539 634.017 25.9453V24.9473C634.108 24.8926 634.554 24.585 635.356 24.0244C636.14 23.4821 636.58 23.1813 636.676 23.1221H637.592V33H636.689V24.127ZM643.348 33.1572C642.318 33.1572 641.472 32.8906 640.812 32.3574C640.16 31.8242 639.834 31.1452 639.834 30.3203C639.834 29.7005 640.037 29.1582 640.442 28.6934C640.848 28.2285 641.379 27.9255 642.035 27.7842V27.7637C641.475 27.6087 641.03 27.3353 640.702 26.9434C640.374 26.5469 640.21 26.0843 640.21 25.5557C640.21 24.8083 640.506 24.193 641.099 23.71C641.691 23.2223 642.441 22.9785 643.348 22.9785C644.259 22.9785 645.009 23.2223 645.597 23.71C646.185 24.193 646.479 24.8083 646.479 25.5557C646.479 26.0752 646.314 26.5332 645.986 26.9297C645.658 27.3262 645.216 27.6042 644.66 27.7637V27.7842C645.316 27.9255 645.847 28.2285 646.253 28.6934C646.659 29.1582 646.861 29.7005 646.861 30.3203C646.861 31.1497 646.535 31.8288 645.884 32.3574C645.228 32.8906 644.382 33.1572 643.348 33.1572ZM643.348 32.3369C644.104 32.3369 644.722 32.141 645.2 31.749C645.674 31.3617 645.911 30.8672 645.911 30.2656C645.911 29.6732 645.674 29.1878 645.2 28.8096C644.722 28.4313 644.104 28.2422 643.348 28.2422C642.596 28.2422 641.98 28.4313 641.502 28.8096C641.023 29.1878 640.784 29.6732 640.784 30.2656C640.784 30.8672 641.021 31.3617 641.495 31.749C641.974 32.141 642.591 32.3369 643.348 32.3369ZM643.348 27.4082C643.99 27.4082 644.519 27.2419 644.934 26.9092C645.344 26.5765 645.549 26.1504 645.549 25.6309C645.549 25.0977 645.346 24.6579 644.94 24.3115C644.53 23.9652 643.999 23.792 643.348 23.792C642.696 23.792 642.165 23.9652 641.755 24.3115C641.345 24.6579 641.14 25.0977 641.14 25.6309C641.14 26.1504 641.347 26.5765 641.762 26.9092C642.172 27.2419 642.701 27.4082 643.348 27.4082ZM650.771 24.127H650.744L649.657 24.8926C648.928 25.403 648.409 25.7539 648.099 25.9453V24.9473C648.19 24.8926 648.636 24.585 649.438 24.0244C650.222 23.4821 650.662 23.1813 650.758 23.1221H651.674V33H650.771V24.127ZM654.285 33V23.1357H660.137V23.9834H655.215V27.6885H659.74V28.5225H655.215V33H654.285Z" fill="#18181F"/>
<path d="M1102.35 26.7246L1101.82 29.3291H1103.43L1103.29 30.0879H1101.67L1101.07 33H1100.31L1100.91 30.0879H1098.58L1097.98 33H1097.22L1097.82 30.0879H1096.25L1096.4 29.3291H1097.98L1098.5 26.7246H1097.01L1097.16 25.9727H1098.65L1099.25 23.1221H1100.01L1099.42 25.9727H1101.74L1102.34 23.1221H1103.1L1102.51 25.9727H1104.2L1104.06 26.7246H1102.35ZM1098.73 29.3428H1101.07L1101.59 26.7178H1099.26L1098.73 29.3428ZM1105.08 25.8975C1105.08 25.0589 1105.39 24.3617 1105.99 23.8057C1106.58 23.2542 1107.33 22.9785 1108.24 22.9785C1109.1 22.9785 1109.82 23.2383 1110.42 23.7578C1111.01 24.2773 1111.31 24.9154 1111.31 25.6719C1111.31 26.2096 1111.16 26.7314 1110.86 27.2373C1110.56 27.7386 1110 28.4154 1109.18 29.2676L1106.43 32.1387V32.166H1111.56V33H1105.13V32.3438L1108.61 28.6592C1109.32 27.9163 1109.79 27.349 1110.02 26.957C1110.26 26.5651 1110.38 26.1549 1110.38 25.7266C1110.38 25.1888 1110.17 24.7331 1109.75 24.3594C1109.33 23.9857 1108.82 23.7988 1108.21 23.7988C1107.58 23.7988 1107.05 23.9971 1106.62 24.3936C1106.2 24.7946 1105.99 25.2959 1105.98 25.8975V25.9043H1105.08V25.8975ZM1116.05 33.1572C1115.22 33.1572 1114.52 32.9271 1113.94 32.4668C1113.36 32.0111 1113 31.4072 1112.86 30.6553H1113.81C1113.94 31.1566 1114.2 31.5599 1114.6 31.8652C1115.01 32.1797 1115.5 32.3369 1116.06 32.3369C1116.94 32.3369 1117.62 31.9473 1118.12 31.168C1118.61 30.4023 1118.86 29.3245 1118.89 27.9346L1118.88 27.709H1118.87C1118.68 28.265 1118.32 28.7184 1117.78 29.0693C1117.24 29.4202 1116.64 29.5957 1115.96 29.5957C1115.02 29.5957 1114.24 29.2881 1113.62 28.6729C1113 28.0531 1112.69 27.2806 1112.69 26.3555C1112.69 25.3802 1113.01 24.5736 1113.66 23.9355C1114.3 23.2975 1115.12 22.9785 1116.11 22.9785C1117.49 22.9785 1118.5 23.6006 1119.13 24.8447C1119.57 25.6149 1119.79 26.6198 1119.79 27.8594C1119.79 29.5137 1119.46 30.8102 1118.8 31.749C1118.14 32.6878 1117.22 33.1572 1116.05 33.1572ZM1116.11 28.7686C1116.82 28.7686 1117.41 28.5361 1117.9 28.0713C1118.39 27.6064 1118.63 27.0413 1118.63 26.376C1118.63 25.6605 1118.39 25.0566 1117.91 24.5645C1117.42 24.0677 1116.82 23.8193 1116.12 23.8193C1115.42 23.8193 1114.83 24.0609 1114.35 24.5439C1113.87 25.027 1113.63 25.6217 1113.63 26.3281C1113.63 27.0208 1113.86 27.5996 1114.33 28.0645C1114.8 28.5339 1115.4 28.7686 1116.11 28.7686ZM1126.08 23.9971V23.9697H1120.6V23.1357H1127.02V24.0107L1122.5 33H1121.51L1126.08 23.9971ZM1128.33 25.8975C1128.34 25.0589 1128.64 24.3617 1129.24 23.8057C1129.84 23.2542 1130.59 22.9785 1131.49 22.9785C1132.35 22.9785 1133.08 23.2383 1133.67 23.7578C1134.27 24.2773 1134.56 24.9154 1134.56 25.6719C1134.56 26.2096 1134.41 26.7314 1134.12 27.2373C1133.82 27.7386 1133.26 28.4154 1132.44 29.2676L1129.69 32.1387V32.166H1134.81V33H1128.38V32.3438L1131.87 28.6592C1132.57 27.9163 1133.04 27.349 1133.28 26.957C1133.51 26.5651 1133.63 26.1549 1133.63 25.7266C1133.63 25.1888 1133.42 24.7331 1133 24.3594C1132.58 23.9857 1132.07 23.7988 1131.46 23.7988C1130.83 23.7988 1130.3 23.9971 1129.88 24.3936C1129.46 24.7946 1129.25 25.2959 1129.24 25.8975V25.9043H1128.33V25.8975ZM1140.34 33.1572C1139 33.1572 1137.93 32.6947 1137.14 31.7695C1136.35 30.849 1135.95 29.6071 1135.95 28.0439C1135.95 26.499 1136.35 25.2686 1137.15 24.3525C1137.94 23.4365 1139 22.9785 1140.34 22.9785C1141.39 22.9785 1142.28 23.2861 1143.02 23.9014C1143.77 24.512 1144.21 25.3005 1144.34 26.2666H1143.41C1143.27 25.5557 1142.92 24.9746 1142.35 24.5234C1141.78 24.0723 1141.11 23.8467 1140.34 23.8467C1139.3 23.8467 1138.46 24.2249 1137.84 24.9814C1137.22 25.7425 1136.91 26.7633 1136.91 28.0439C1136.91 29.3428 1137.22 30.375 1137.84 31.1406C1138.46 31.9062 1139.3 32.2891 1140.35 32.2891C1141.14 32.2891 1141.81 32.0908 1142.36 31.6943C1142.91 31.2979 1143.26 30.7601 1143.41 30.0811H1144.34C1144.17 31.0426 1143.73 31.7946 1143.02 32.3369C1142.31 32.8838 1141.42 33.1572 1140.34 33.1572ZM1149.1 33.1572C1147.73 33.1572 1146.72 32.5352 1146.09 31.291C1145.64 30.5208 1145.42 29.516 1145.42 28.2764C1145.42 26.6221 1145.76 25.3255 1146.42 24.3867C1147.08 23.4479 1148 22.9785 1149.17 22.9785C1149.99 22.9785 1150.69 23.2064 1151.27 23.6621C1151.85 24.1178 1152.21 24.724 1152.35 25.4805H1151.41C1151.28 24.9792 1151.02 24.5736 1150.61 24.2637C1150.2 23.9583 1149.71 23.8057 1149.16 23.8057C1148.26 23.8057 1147.56 24.2067 1147.07 25.0088C1146.57 25.8154 1146.33 26.9502 1146.33 28.4131H1146.35C1146.55 27.8571 1146.92 27.4059 1147.45 27.0596C1147.99 26.7132 1148.59 26.54 1149.25 26.54C1150.19 26.54 1150.97 26.8499 1151.59 27.4697C1152.21 28.0895 1152.53 28.8665 1152.53 29.8008C1152.53 30.7669 1152.2 31.569 1151.56 32.207C1150.91 32.8405 1150.09 33.1572 1149.1 33.1572ZM1149.09 32.3232C1149.79 32.3232 1150.38 32.0817 1150.86 31.5986C1151.34 31.1156 1151.58 30.5254 1151.58 29.8281C1151.58 29.1217 1151.34 28.5339 1150.87 28.0645C1150.41 27.5996 1149.82 27.3672 1149.1 27.3672C1148.4 27.3672 1147.81 27.5973 1147.32 28.0576C1146.83 28.5225 1146.59 29.0898 1146.59 29.7598C1146.59 30.4798 1146.83 31.0859 1147.31 31.5781C1147.79 32.0749 1148.39 32.3232 1149.09 32.3232Z" fill="#18181F"/>
<path d="M860.351 13.7246L859.824 16.3291H861.431L861.287 17.0879H859.667L859.072 20H858.307L858.908 17.0879H856.577L855.982 20H855.224L855.818 17.0879H854.253L854.396 16.3291H855.982L856.502 13.7246H855.012L855.162 12.9727H856.652L857.247 10.1221H858.006L857.425 12.9727H859.742L860.337 10.1221H861.096L860.508 12.9727H862.203L862.06 13.7246H860.351ZM856.728 16.3428H859.065L859.592 13.7178H857.261L856.728 16.3428ZM863.215 20V10.1357H869.066V10.9834H864.145V14.6885H868.67V15.5225H864.145V20H863.215ZM873.729 20.1572C872.612 20.1572 871.737 19.6969 871.104 18.7764C870.47 17.8695 870.153 16.6322 870.153 15.0645C870.153 13.5059 870.47 12.2708 871.104 11.3594C871.746 10.4388 872.621 9.97852 873.729 9.97852C874.84 9.97852 875.715 10.4388 876.354 11.3594C876.982 12.2663 877.297 13.499 877.297 15.0576C877.297 16.6253 876.982 17.8649 876.354 18.7764C875.715 19.6969 874.84 20.1572 873.729 20.1572ZM873.729 19.3369C874.553 19.3369 875.201 18.9518 875.67 18.1816C876.13 17.4206 876.36 16.3815 876.36 15.0645C876.36 13.7565 876.128 12.722 875.663 11.9609C875.194 11.1908 874.549 10.8057 873.729 10.8057C872.913 10.8057 872.268 11.193 871.794 11.9678C871.329 12.7334 871.097 13.7633 871.097 15.0576C871.097 16.3792 871.327 17.4206 871.787 18.1816C872.257 18.9518 872.904 19.3369 873.729 19.3369ZM882.205 20.1572C880.829 20.1572 879.824 19.5352 879.19 18.291C878.748 17.5208 878.527 16.516 878.527 15.2764C878.527 13.6221 878.86 12.3255 879.525 11.3867C880.186 10.4479 881.102 9.97852 882.273 9.97852C883.094 9.97852 883.793 10.2064 884.372 10.6621C884.951 11.1178 885.311 11.724 885.452 12.4805H884.509C884.386 11.9792 884.119 11.5736 883.709 11.2637C883.299 10.9583 882.818 10.8057 882.267 10.8057C881.364 10.8057 880.667 11.2067 880.175 12.0088C879.678 12.8154 879.43 13.9502 879.43 15.4131H879.45C879.651 14.8571 880.02 14.4059 880.558 14.0596C881.091 13.7132 881.69 13.54 882.355 13.54C883.294 13.54 884.074 13.8499 884.693 14.4697C885.318 15.0895 885.63 15.8665 885.63 16.8008C885.63 17.7669 885.306 18.569 884.659 19.207C884.012 19.8405 883.194 20.1572 882.205 20.1572ZM882.198 19.3232C882.891 19.3232 883.479 19.0817 883.962 18.5986C884.44 18.1156 884.68 17.5254 884.68 16.8281C884.68 16.1217 884.445 15.5339 883.976 15.0645C883.511 14.5996 882.921 14.3672 882.205 14.3672C881.503 14.3672 880.909 14.5973 880.421 15.0576C879.938 15.5225 879.696 16.0898 879.696 16.7598C879.696 17.4798 879.936 18.0859 880.414 18.5781C880.897 19.0749 881.492 19.3232 882.198 19.3232ZM890.285 20.1572C889.255 20.1572 888.41 19.8906 887.749 19.3574C887.097 18.8242 886.771 18.1452 886.771 17.3203C886.771 16.7005 886.974 16.1582 887.38 15.6934C887.785 15.2285 888.316 14.9255 888.973 14.7842V14.7637C888.412 14.6087 887.968 14.3353 887.64 13.9434C887.312 13.5469 887.147 13.0843 887.147 12.5557C887.147 11.8083 887.444 11.193 888.036 10.71C888.629 10.2223 889.378 9.97852 890.285 9.97852C891.197 9.97852 891.946 10.2223 892.534 10.71C893.122 11.193 893.416 11.8083 893.416 12.5557C893.416 13.0752 893.252 13.5332 892.924 13.9297C892.596 14.3262 892.154 14.6042 891.598 14.7637V14.7842C892.254 14.9255 892.785 15.2285 893.19 15.6934C893.596 16.1582 893.799 16.7005 893.799 17.3203C893.799 18.1497 893.473 18.8288 892.821 19.3574C892.165 19.8906 891.32 20.1572 890.285 20.1572ZM890.285 19.3369C891.042 19.3369 891.659 19.141 892.138 18.749C892.612 18.3617 892.849 17.8672 892.849 17.2656C892.849 16.6732 892.612 16.1878 892.138 15.8096C891.659 15.4313 891.042 15.2422 890.285 15.2422C889.533 15.2422 888.918 15.4313 888.439 15.8096C887.961 16.1878 887.722 16.6732 887.722 17.2656C887.722 17.8672 887.959 18.3617 888.433 18.749C888.911 19.141 889.529 19.3369 890.285 19.3369ZM890.285 14.4082C890.928 14.4082 891.456 14.2419 891.871 13.9092C892.281 13.5765 892.486 13.1504 892.486 12.6309C892.486 12.0977 892.284 11.6579 891.878 11.3115C891.468 10.9652 890.937 10.792 890.285 10.792C889.633 10.792 889.103 10.9652 888.692 11.3115C888.282 11.6579 888.077 12.0977 888.077 12.6309C888.077 13.1504 888.285 13.5765 888.699 13.9092C889.109 14.2419 889.638 14.4082 890.285 14.4082ZM898.734 20.1572C897.358 20.1572 896.353 19.5352 895.72 18.291C895.278 17.5208 895.057 16.516 895.057 15.2764C895.057 13.6221 895.389 12.3255 896.055 11.3867C896.715 10.4479 897.632 9.97852 898.803 9.97852C899.623 9.97852 900.323 10.2064 900.901 10.6621C901.48 11.1178 901.84 11.724 901.981 12.4805H901.038C900.915 11.9792 900.648 11.5736 900.238 11.2637C899.828 10.9583 899.347 10.8057 898.796 10.8057C897.894 10.8057 897.196 11.2067 896.704 12.0088C896.207 12.8154 895.959 13.9502 895.959 15.4131H895.979C896.18 14.8571 896.549 14.4059 897.087 14.0596C897.62 13.7132 898.219 13.54 898.885 13.54C899.824 13.54 900.603 13.8499 901.223 14.4697C901.847 15.0895 902.159 15.8665 902.159 16.8008C902.159 17.7669 901.836 18.569 901.188 19.207C900.541 19.8405 899.723 20.1572 898.734 20.1572ZM898.728 19.3232C899.42 19.3232 900.008 19.0817 900.491 18.5986C900.97 18.1156 901.209 17.5254 901.209 16.8281C901.209 16.1217 900.974 15.5339 900.505 15.0645C900.04 14.5996 899.45 14.3672 898.734 14.3672C898.033 14.3672 897.438 14.5973 896.95 15.0576C896.467 15.5225 896.226 16.0898 896.226 16.7598C896.226 17.4798 896.465 18.0859 896.943 18.5781C897.426 19.0749 898.021 19.3232 898.728 19.3232ZM906.814 20.1572C905.912 20.1572 905.151 19.902 904.531 19.3916C903.907 18.8812 903.565 18.2272 903.506 17.4297H904.422C904.486 17.9811 904.743 18.4368 905.194 18.7969C905.646 19.1523 906.19 19.3301 906.828 19.3301C907.562 19.3301 908.166 19.0954 908.64 18.626C909.109 18.1611 909.344 17.5664 909.344 16.8418C909.344 16.1217 909.109 15.5247 908.64 15.0508C908.175 14.5768 907.585 14.3398 906.869 14.3398C905.812 14.3398 905.039 14.7591 904.552 15.5977H903.656L904.217 10.1357H909.686V10.9697H904.989L904.62 14.6133H904.647C905.167 13.8887 905.958 13.5264 907.02 13.5264C907.958 13.5264 908.738 13.8385 909.357 14.4629C909.973 15.0872 910.28 15.8734 910.28 16.8213C910.28 17.7965 909.954 18.5964 909.303 19.2207C908.651 19.8451 907.822 20.1572 906.814 20.1572Z" fill="#18181F"/>
<path d="M860.351 38.7246L859.824 41.3291H861.431L861.287 42.0879H859.667L859.072 45H858.307L858.908 42.0879H856.577L855.982 45H855.224L855.818 42.0879H854.253L854.396 41.3291H855.982L856.502 38.7246H855.012L855.162 37.9727H856.652L857.247 35.1221H858.006L857.425 37.9727H859.742L860.337 35.1221H861.096L860.508 37.9727H862.203L862.06 38.7246H860.351ZM856.728 41.3428H859.065L859.592 38.7178H857.261L856.728 41.3428ZM866.462 35.1357C867.938 35.1357 869.087 35.5664 869.907 36.4277C870.728 37.2936 871.138 38.5059 871.138 40.0645C871.138 41.6276 870.728 42.8398 869.907 43.7012C869.091 44.5671 867.943 45 866.462 45H863.215V35.1357H866.462ZM864.151 44.1523H866.407C867.619 44.1523 868.554 43.7992 869.21 43.0928C869.862 42.3864 870.188 41.3792 870.188 40.0713C870.188 38.7588 869.862 37.7493 869.21 37.043C868.554 36.3366 867.619 35.9834 866.407 35.9834H864.151V44.1523ZM875.827 35.1357C877.304 35.1357 878.452 35.5664 879.272 36.4277C880.093 37.2936 880.503 38.5059 880.503 40.0645C880.503 41.6276 880.093 42.8398 879.272 43.7012C878.457 44.5671 877.308 45 875.827 45H872.58V35.1357H875.827ZM873.517 44.1523H875.772C876.985 44.1523 877.919 43.7992 878.575 43.0928C879.227 42.3864 879.553 41.3792 879.553 40.0713C879.553 38.7588 879.227 37.7493 878.575 37.043C877.919 36.3366 876.985 35.9834 875.772 35.9834H873.517V44.1523ZM885.158 45.1572C884.256 45.1572 883.495 44.902 882.875 44.3916C882.251 43.8812 881.909 43.2272 881.85 42.4297H882.766C882.829 42.9811 883.087 43.4368 883.538 43.7969C883.989 44.1523 884.534 44.3301 885.172 44.3301C885.906 44.3301 886.509 44.0954 886.983 43.626C887.453 43.1611 887.688 42.5664 887.688 41.8418C887.688 41.1217 887.453 40.5247 886.983 40.0508C886.519 39.5768 885.928 39.3398 885.213 39.3398C884.156 39.3398 883.383 39.7591 882.896 40.5977H882L882.561 35.1357H888.029V35.9697H883.333L882.964 39.6133H882.991C883.511 38.8887 884.301 38.5264 885.363 38.5264C886.302 38.5264 887.081 38.8385 887.701 39.4629C888.316 40.0872 888.624 40.8734 888.624 41.8213C888.624 42.7965 888.298 43.5964 887.646 44.2207C886.995 44.8451 886.165 45.1572 885.158 45.1572ZM895.433 41.9785H891.29L890.196 45H889.205L892.896 35.1357H893.826L897.511 45H896.526L895.433 41.9785ZM891.57 41.1719H895.152L893.382 36.291H893.341L891.57 41.1719ZM901.476 45.1572C900.646 45.1572 899.942 44.9271 899.363 44.4668C898.785 44.0111 898.427 43.4072 898.29 42.6553H899.24C899.363 43.1566 899.625 43.5599 900.026 43.8652C900.437 44.1797 900.922 44.3369 901.482 44.3369C902.362 44.3369 903.05 43.9473 903.547 43.168C904.035 42.4023 904.29 41.3245 904.312 39.9346L904.306 39.709H904.292C904.105 40.265 903.743 40.7184 903.205 41.0693C902.667 41.4202 902.061 41.5957 901.387 41.5957C900.448 41.5957 899.666 41.2881 899.042 40.6729C898.422 40.0531 898.112 39.2806 898.112 38.3555C898.112 37.3802 898.436 36.5736 899.083 35.9355C899.73 35.2975 900.548 34.9785 901.537 34.9785C902.918 34.9785 903.923 35.6006 904.552 36.8447C904.994 37.6149 905.215 38.6198 905.215 39.8594C905.215 41.5137 904.887 42.8102 904.23 43.749C903.565 44.6878 902.647 45.1572 901.476 45.1572ZM901.537 40.7686C902.243 40.7686 902.84 40.5361 903.328 40.0713C903.811 39.6064 904.053 39.0413 904.053 38.376C904.053 37.6605 903.813 37.0566 903.335 36.5645C902.847 36.0677 902.25 35.8193 901.544 35.8193C900.842 35.8193 900.252 36.0609 899.773 36.5439C899.295 37.027 899.056 37.6217 899.056 38.3281C899.056 39.0208 899.288 39.5996 899.753 40.0645C900.227 40.5339 900.822 40.7686 901.537 40.7686ZM909.973 45.1572C909.07 45.1572 908.309 44.902 907.689 44.3916C907.065 43.8812 906.723 43.2272 906.664 42.4297H907.58C907.644 42.9811 907.901 43.4368 908.353 43.7969C908.804 44.1523 909.348 44.3301 909.986 44.3301C910.72 44.3301 911.324 44.0954 911.798 43.626C912.267 43.1611 912.502 42.5664 912.502 41.8418C912.502 41.1217 912.267 40.5247 911.798 40.0508C911.333 39.5768 910.743 39.3398 910.027 39.3398C908.97 39.3398 908.198 39.7591 907.71 40.5977H906.814L907.375 35.1357H912.844V35.9697H908.147L907.778 39.6133H907.806C908.325 38.8887 909.116 38.5264 910.178 38.5264C911.117 38.5264 911.896 38.8385 912.516 39.4629C913.131 40.0872 913.438 40.8734 913.438 41.8213C913.438 42.7965 913.113 43.5964 912.461 44.2207C911.809 44.8451 910.98 45.1572 909.973 45.1572Z" fill="#18181F"/>
<path d="M1346.35 13.7246L1345.82 16.3291H1347.43L1347.29 17.0879H1345.67L1345.07 20H1344.31L1344.91 17.0879H1342.58L1341.98 20H1341.22L1341.82 17.0879H1340.25L1340.4 16.3291H1341.98L1342.5 13.7246H1341.01L1341.16 12.9727H1342.65L1343.25 10.1221H1344.01L1343.42 12.9727H1345.74L1346.34 10.1221H1347.1L1346.51 12.9727H1348.2L1348.06 13.7246H1346.35ZM1342.73 16.3428H1345.07L1345.59 13.7178H1343.26L1342.73 16.3428ZM1349.08 12.8975C1349.08 12.0589 1349.39 11.3617 1349.99 10.8057C1350.58 10.2542 1351.33 9.97852 1352.24 9.97852C1353.1 9.97852 1353.82 10.2383 1354.42 10.7578C1355.01 11.2773 1355.31 11.9154 1355.31 12.6719C1355.31 13.2096 1355.16 13.7314 1354.86 14.2373C1354.56 14.7386 1354 15.4154 1353.18 16.2676L1350.43 19.1387V19.166H1355.56V20H1349.13V19.3438L1352.61 15.6592C1353.32 14.9163 1353.79 14.349 1354.02 13.957C1354.26 13.5651 1354.38 13.1549 1354.38 12.7266C1354.38 12.1888 1354.17 11.7331 1353.75 11.3594C1353.33 10.9857 1352.82 10.7988 1352.21 10.7988C1351.58 10.7988 1351.05 10.9971 1350.62 11.3936C1350.2 11.7946 1349.99 12.2959 1349.98 12.8975V12.9043H1349.08V12.8975ZM1360.3 20.1572C1359.27 20.1572 1358.43 19.8906 1357.77 19.3574C1357.11 18.8242 1356.79 18.1452 1356.79 17.3203C1356.79 16.7005 1356.99 16.1582 1357.4 15.6934C1357.8 15.2285 1358.33 14.9255 1358.99 14.7842V14.7637C1358.43 14.6087 1357.99 14.3353 1357.66 13.9434C1357.33 13.5469 1357.17 13.0843 1357.17 12.5557C1357.17 11.8083 1357.46 11.193 1358.05 10.71C1358.65 10.2223 1359.4 9.97852 1360.3 9.97852C1361.21 9.97852 1361.96 10.2223 1362.55 10.71C1363.14 11.193 1363.43 11.8083 1363.43 12.5557C1363.43 13.0752 1363.27 13.5332 1362.94 13.9297C1362.61 14.3262 1362.17 14.6042 1361.62 14.7637V14.7842C1362.27 14.9255 1362.8 15.2285 1363.21 15.6934C1363.61 16.1582 1363.82 16.7005 1363.82 17.3203C1363.82 18.1497 1363.49 18.8288 1362.84 19.3574C1362.18 19.8906 1361.34 20.1572 1360.3 20.1572ZM1360.3 19.3369C1361.06 19.3369 1361.68 19.141 1362.16 18.749C1362.63 18.3617 1362.87 17.8672 1362.87 17.2656C1362.87 16.6732 1362.63 16.1878 1362.16 15.8096C1361.68 15.4313 1361.06 15.2422 1360.3 15.2422C1359.55 15.2422 1358.94 15.4313 1358.46 15.8096C1357.98 16.1878 1357.74 16.6732 1357.74 17.2656C1357.74 17.8672 1357.98 18.3617 1358.45 18.749C1358.93 19.141 1359.55 19.3369 1360.3 19.3369ZM1360.3 14.4082C1360.95 14.4082 1361.47 14.2419 1361.89 13.9092C1362.3 13.5765 1362.5 13.1504 1362.5 12.6309C1362.5 12.0977 1362.3 11.6579 1361.9 11.3115C1361.49 10.9652 1360.95 10.792 1360.3 10.792C1359.65 10.792 1359.12 10.9652 1358.71 11.3115C1358.3 11.6579 1358.09 12.0977 1358.09 12.6309C1358.09 13.1504 1358.3 13.5765 1358.72 13.9092C1359.13 14.2419 1359.66 14.4082 1360.3 14.4082ZM1370.33 10.9971V10.9697H1364.84V10.1357H1371.27V11.0107L1366.75 20H1365.76L1370.33 10.9971ZM1374.55 14.5107H1375.7C1376.34 14.5107 1376.86 14.333 1377.27 13.9775C1377.68 13.6221 1377.88 13.1686 1377.88 12.6172C1377.88 12.0749 1377.69 11.6374 1377.31 11.3047C1376.92 10.9674 1376.39 10.7988 1375.74 10.7988C1375.13 10.7988 1374.62 10.9674 1374.22 11.3047C1373.82 11.6419 1373.59 12.084 1373.54 12.6309H1372.64C1372.7 11.8379 1373.02 11.1976 1373.58 10.71C1374.16 10.2223 1374.89 9.97852 1375.78 9.97852C1376.65 9.97852 1377.37 10.2155 1377.95 10.6895C1378.53 11.168 1378.82 11.7718 1378.82 12.501C1378.82 13.1162 1378.64 13.6335 1378.27 14.0527C1377.9 14.472 1377.4 14.7386 1376.76 14.8525V14.8799C1377.52 14.9255 1378.12 15.1647 1378.57 15.5977C1379.02 16.0352 1379.25 16.6025 1379.25 17.2998C1379.25 18.1292 1378.92 18.8128 1378.26 19.3506C1377.61 19.8883 1376.8 20.1572 1375.83 20.1572C1374.85 20.1572 1374.04 19.902 1373.41 19.3916C1372.79 18.8903 1372.47 18.2409 1372.44 17.4434H1373.34C1373.38 17.9993 1373.62 18.4528 1374.08 18.8037C1374.54 19.1592 1375.12 19.3369 1375.83 19.3369C1376.54 19.3369 1377.13 19.1478 1377.6 18.7695C1378.06 18.3913 1378.29 17.9105 1378.29 17.3271C1378.29 16.6982 1378.07 16.2038 1377.61 15.8438C1377.16 15.4837 1376.53 15.3037 1375.74 15.3037H1374.55V14.5107ZM1384.84 20.1572C1383.49 20.1572 1382.42 19.6947 1381.63 18.7695C1380.84 17.849 1380.44 16.6071 1380.44 15.0439C1380.44 13.499 1380.84 12.2686 1381.64 11.3525C1382.43 10.4365 1383.5 9.97852 1384.84 9.97852C1385.88 9.97852 1386.77 10.2861 1387.52 10.9014C1388.26 11.512 1388.7 12.3005 1388.84 13.2666H1387.9C1387.76 12.5557 1387.41 11.9746 1386.84 11.5234C1386.27 11.0723 1385.6 10.8467 1384.84 10.8467C1383.79 10.8467 1382.95 11.2249 1382.33 11.9814C1381.71 12.7425 1381.4 13.7633 1381.4 15.0439C1381.4 16.3428 1381.71 17.375 1382.33 18.1406C1382.95 18.9062 1383.79 19.2891 1384.84 19.2891C1385.63 19.2891 1386.3 19.0908 1386.85 18.6943C1387.4 18.2979 1387.75 17.7601 1387.9 17.0811H1388.84C1388.66 18.0426 1388.22 18.7946 1387.51 19.3369C1386.8 19.8838 1385.91 20.1572 1384.84 20.1572ZM1393.43 20.1572C1392.4 20.1572 1391.55 19.8906 1390.89 19.3574C1390.24 18.8242 1389.92 18.1452 1389.92 17.3203C1389.92 16.7005 1390.12 16.1582 1390.52 15.6934C1390.93 15.2285 1391.46 14.9255 1392.12 14.7842V14.7637C1391.56 14.6087 1391.11 14.3353 1390.78 13.9434C1390.46 13.5469 1390.29 13.0843 1390.29 12.5557C1390.29 11.8083 1390.59 11.193 1391.18 10.71C1391.77 10.2223 1392.52 9.97852 1393.43 9.97852C1394.34 9.97852 1395.09 10.2223 1395.68 10.71C1396.27 11.193 1396.56 11.8083 1396.56 12.5557C1396.56 13.0752 1396.4 13.5332 1396.07 13.9297C1395.74 14.3262 1395.3 14.6042 1394.74 14.7637V14.7842C1395.4 14.9255 1395.93 15.2285 1396.33 15.6934C1396.74 16.1582 1396.94 16.7005 1396.94 17.3203C1396.94 18.1497 1396.62 18.8288 1395.97 19.3574C1395.31 19.8906 1394.46 20.1572 1393.43 20.1572ZM1393.43 19.3369C1394.19 19.3369 1394.8 19.141 1395.28 18.749C1395.76 18.3617 1395.99 17.8672 1395.99 17.2656C1395.99 16.6732 1395.76 16.1878 1395.28 15.8096C1394.8 15.4313 1394.19 15.2422 1393.43 15.2422C1392.68 15.2422 1392.06 15.4313 1391.58 15.8096C1391.11 16.1878 1390.87 16.6732 1390.87 17.2656C1390.87 17.8672 1391.1 18.3617 1391.58 18.749C1392.06 19.141 1392.67 19.3369 1393.43 19.3369ZM1393.43 14.4082C1394.07 14.4082 1394.6 14.2419 1395.02 13.9092C1395.43 13.5765 1395.63 13.1504 1395.63 12.6309C1395.63 12.0977 1395.43 11.6579 1395.02 11.3115C1394.61 10.9652 1394.08 10.792 1393.43 10.792C1392.78 10.792 1392.25 10.9652 1391.84 11.3115C1391.43 11.6579 1391.22 12.0977 1391.22 12.6309C1391.22 13.1504 1391.43 13.5765 1391.84 13.9092C1392.25 14.2419 1392.78 14.4082 1393.43 14.4082Z" fill="#18181F"/>
<path d="M1346.35 38.7246L1345.82 41.3291H1347.43L1347.29 42.0879H1345.67L1345.07 45H1344.31L1344.91 42.0879H1342.58L1341.98 45H1341.22L1341.82 42.0879H1340.25L1340.4 41.3291H1341.98L1342.5 38.7246H1341.01L1341.16 37.9727H1342.65L1343.25 35.1221H1344.01L1343.42 37.9727H1345.74L1346.34 35.1221H1347.1L1346.51 37.9727H1348.2L1348.06 38.7246H1346.35ZM1342.73 41.3428H1345.07L1345.59 38.7178H1343.26L1342.73 41.3428ZM1351.61 36.127H1351.58L1350.49 36.8926C1349.76 37.403 1349.24 37.7539 1348.93 37.9453V36.9473C1349.03 36.8926 1349.47 36.585 1350.27 36.0244C1351.06 35.4821 1351.5 35.1813 1351.59 35.1221H1352.51V45H1351.61V36.127ZM1354.9 37.8975C1354.91 37.0589 1355.21 36.3617 1355.81 35.8057C1356.41 35.2542 1357.16 34.9785 1358.06 34.9785C1358.92 34.9785 1359.65 35.2383 1360.24 35.7578C1360.83 36.2773 1361.13 36.9154 1361.13 37.6719C1361.13 38.2096 1360.98 38.7314 1360.69 39.2373C1360.38 39.7386 1359.82 40.4154 1359 41.2676L1356.26 44.1387V44.166H1361.38V45H1354.95V44.3438L1358.44 40.6592C1359.14 39.9163 1359.61 39.349 1359.84 38.957C1360.08 38.5651 1360.2 38.1549 1360.2 37.7266C1360.2 37.1888 1359.99 36.7331 1359.57 36.3594C1359.15 35.9857 1358.64 35.7988 1358.03 35.7988C1357.4 35.7988 1356.87 35.9971 1356.45 36.3936C1356.03 36.7946 1355.81 37.2959 1355.8 37.8975V37.9043H1354.9V37.8975ZM1366.13 45.1572C1365.1 45.1572 1364.25 44.8906 1363.59 44.3574C1362.94 43.8242 1362.61 43.1452 1362.61 42.3203C1362.61 41.7005 1362.82 41.1582 1363.22 40.6934C1363.63 40.2285 1364.16 39.9255 1364.81 39.7842V39.7637C1364.25 39.6087 1363.81 39.3353 1363.48 38.9434C1363.15 38.5469 1362.99 38.0843 1362.99 37.5557C1362.99 36.8083 1363.29 36.193 1363.88 35.71C1364.47 35.2223 1365.22 34.9785 1366.13 34.9785C1367.04 34.9785 1367.79 35.2223 1368.38 35.71C1368.96 36.193 1369.26 36.8083 1369.26 37.5557C1369.26 38.0752 1369.09 38.5332 1368.77 38.9297C1368.44 39.3262 1368 39.6042 1367.44 39.7637V39.7842C1368.1 39.9255 1368.63 40.2285 1369.03 40.6934C1369.44 41.1582 1369.64 41.7005 1369.64 42.3203C1369.64 43.1497 1369.31 43.8288 1368.66 44.3574C1368.01 44.8906 1367.16 45.1572 1366.13 45.1572ZM1366.13 44.3369C1366.88 44.3369 1367.5 44.141 1367.98 43.749C1368.45 43.3617 1368.69 42.8672 1368.69 42.2656C1368.69 41.6732 1368.45 41.1878 1367.98 40.8096C1367.5 40.4313 1366.88 40.2422 1366.13 40.2422C1365.38 40.2422 1364.76 40.4313 1364.28 40.8096C1363.8 41.1878 1363.56 41.6732 1363.56 42.2656C1363.56 42.8672 1363.8 43.3617 1364.27 43.749C1364.75 44.141 1365.37 44.3369 1366.13 44.3369ZM1366.13 39.4082C1366.77 39.4082 1367.3 39.2419 1367.71 38.9092C1368.12 38.5765 1368.33 38.1504 1368.33 37.6309C1368.33 37.0977 1368.13 36.6579 1367.72 36.3115C1367.31 35.9652 1366.78 35.792 1366.13 35.792C1365.48 35.792 1364.94 35.9652 1364.53 36.3115C1364.12 36.6579 1363.92 37.0977 1363.92 37.6309C1363.92 38.1504 1364.13 38.5765 1364.54 38.9092C1364.95 39.2419 1365.48 39.4082 1366.13 39.4082ZM1374.16 45.1572C1373.33 45.1572 1372.63 44.9271 1372.05 44.4668C1371.47 44.0111 1371.11 43.4072 1370.97 42.6553H1371.92C1372.05 43.1566 1372.31 43.5599 1372.71 43.8652C1373.12 44.1797 1373.61 44.3369 1374.17 44.3369C1375.05 44.3369 1375.73 43.9473 1376.23 43.168C1376.72 42.4023 1376.97 41.3245 1377 39.9346L1376.99 39.709H1376.98C1376.79 40.265 1376.43 40.7184 1375.89 41.0693C1375.35 41.4202 1374.74 41.5957 1374.07 41.5957C1373.13 41.5957 1372.35 41.2881 1371.73 40.6729C1371.11 40.0531 1370.8 39.2806 1370.8 38.3555C1370.8 37.3802 1371.12 36.5736 1371.77 35.9355C1372.41 35.2975 1373.23 34.9785 1374.22 34.9785C1375.6 34.9785 1376.61 35.6006 1377.24 36.8447C1377.68 37.6149 1377.9 38.6198 1377.9 39.8594C1377.9 41.5137 1377.57 42.8102 1376.91 43.749C1376.25 44.6878 1375.33 45.1572 1374.16 45.1572ZM1374.22 40.7686C1374.93 40.7686 1375.52 40.5361 1376.01 40.0713C1376.49 39.6064 1376.74 39.0413 1376.74 38.376C1376.74 37.6605 1376.5 37.0566 1376.02 36.5645C1375.53 36.0677 1374.93 35.8193 1374.23 35.8193C1373.53 35.8193 1372.94 36.0609 1372.46 36.5439C1371.98 37.027 1371.74 37.6217 1371.74 38.3281C1371.74 39.0208 1371.97 39.5996 1372.44 40.0645C1372.91 40.5339 1373.51 40.7686 1374.22 40.7686ZM1385.4 45H1379.44V35.1357H1385.4V35.9834H1380.37V39.5312H1385.14V40.3652H1380.37V44.1523H1385.4V45ZM1390.24 45.1572C1389.13 45.1572 1388.25 44.6969 1387.62 43.7764C1386.99 42.8695 1386.67 41.6322 1386.67 40.0645C1386.67 38.5059 1386.99 37.2708 1387.62 36.3594C1388.26 35.4388 1389.14 34.9785 1390.24 34.9785C1391.36 34.9785 1392.23 35.4388 1392.87 36.3594C1393.5 37.2663 1393.81 38.499 1393.81 40.0576C1393.81 41.6253 1393.5 42.8649 1392.87 43.7764C1392.23 44.6969 1391.36 45.1572 1390.24 45.1572ZM1390.24 44.3369C1391.07 44.3369 1391.72 43.9518 1392.19 43.1816C1392.65 42.4206 1392.88 41.3815 1392.88 40.0645C1392.88 38.7565 1392.64 37.722 1392.18 36.9609C1391.71 36.1908 1391.06 35.8057 1390.24 35.8057C1389.43 35.8057 1388.78 36.193 1388.31 36.9678C1387.84 37.7334 1387.61 38.7633 1387.61 40.0576C1387.61 41.3792 1387.84 42.4206 1388.3 43.1816C1388.77 43.9518 1389.42 44.3369 1390.24 44.3369Z" fill="#18181F"/>
<path d="M115 0H0V53H115V0Z" fill="#F2F2F2"/>
<path d="M357 0H242V53H357V0Z" fill="#121217"/>
<path d="M598 0H483V53H598V0Z" fill="#18181F"/>
<path d="M839 0H724V53H839V0Z" fill="url(#paint0_linear)"/>
<path d="M1081 0H967V53H1081V0Z" fill="#2972C6"/>
<path d="M1322 0H1208V53H1322V0Z" fill="url(#paint1_linear)"/>
<defs>
<linearGradient id="paint0_linear" x1="735.285" y1="1.87418e-08" x2="747.499" y2="59.9297" gradientUnits="userSpaceOnUse">
<stop stop-color="#F06864"/>
<stop offset="1" stop-color="#DD5A95"/>
</linearGradient>
<linearGradient id="paint1_linear" x1="1208" y1="0" x2="1239.89" y2="77.5621" gradientUnits="userSpaceOnUse">
<stop stop-color="#2972C6"/>
<stop offset="1" stop-color="#1289E0"/>
</linearGradient>
</defs>
</svg>
