<svg width="208" height="75" viewBox="0 0 208 75" fill="none" xmlns="http://www.w3.org/2000/svg">
<path d="M43.9398 45.0361V48.7446V49.8193V53.0223C43.5933 55.93 42.0115 58.29 39.1516 60.1022C36.3351 61.8932 32.8683 62.7782 28.7516 62.7782C24.6783 62.7782 21.3415 61.9143 18.7634 60.2075C16.2283 58.5007 14.95 56.3516 14.95 53.6966C14.95 51.3784 15.9033 49.5243 17.8099 48.0916C19.7166 46.6796 22.8799 45.4784 27.3433 44.5304L36.9199 42.5075C50.3966 39.705 57.1351 33.0466 57.1351 22.5527C57.1351 16.0207 54.5133 10.7107 49.2482 6.64387C44.0267 2.64044 37.2882 0.659561 29.0333 0.659561C20.5398 0.659561 13.7583 2.61931 8.66665 6.55956C3.63997 10.4577 1.06165 15.6625 0.931649 22.1734H15.34C15.5783 19.1604 16.9434 16.8004 19.4567 15.0304C21.9266 13.3234 25.1116 12.4596 28.99 12.4596C32.8034 12.4596 35.8584 13.2604 38.155 14.8827C40.4951 16.5054 41.665 18.6334 41.665 21.2675C41.665 23.4377 40.7116 25.2289 38.8051 26.6196C36.9415 27.9473 33.8866 29.085 29.6399 30.0332L20.7351 31.8666C13.3683 33.3834 7.99498 35.7646 4.63666 39.0096C1.25665 42.1916 -0.43335 46.5111 -0.43335 51.9684C-0.43335 58.9011 2.25332 64.4007 7.60499 68.4675C12.9783 72.5554 20.2151 74.6204 29.3583 74.6204C38.2198 74.6204 45.2615 72.7029 50.505 68.8679C55.7699 65.0118 58.5216 59.7228 58.7599 53.0223V49.8193V48.7446V33.7839C56.2683 38.23 51.7398 42.3389 43.9398 45.0361Z" fill="#18181F"/>
<path d="M75.205 28.2423C74.0782 27.02 73.5149 25.3554 73.5149 23.2482C73.5149 21.1623 74.0782 19.5184 75.205 18.2754C76.3317 17.0323 77.8266 16.4211 79.7333 16.4211C81.2283 16.4211 82.485 16.8214 83.5466 17.6223C84.5866 18.4228 85.2366 19.4975 85.4533 20.8039H83.3516C83.135 20.0243 82.7016 19.3923 82.0517 18.9284C81.4017 18.465 80.6216 18.2332 79.7549 18.2332C78.5199 18.2332 77.5449 18.6968 76.8082 19.6028C76.0718 20.5089 75.7033 21.7311 75.7033 23.2482C75.7033 24.7864 76.0718 26.0084 76.8082 26.9146C77.5449 27.8207 78.5201 28.2843 79.7766 28.2843C80.6865 28.2843 81.445 28.0734 82.0732 27.6732C82.7016 27.2727 83.135 26.7039 83.3733 25.9664H85.4749C85.1717 27.2728 84.5433 28.2843 83.5466 29.0218C82.5501 29.7593 81.2933 30.1175 79.7549 30.1175C77.8482 30.0964 76.3317 29.4854 75.205 28.2423Z" fill="#18181F"/>
<path d="M90.3501 29.8434V18.4227H86.125V16.6527H96.6765V18.4227H92.4516V29.8434H90.3501Z" fill="#18181F"/>
<path d="M99.2551 29.8225V28.0525C99.4717 28.1157 99.7316 28.1368 100.035 28.1368C100.945 28.1368 101.66 27.7366 102.137 26.9146L97.5652 16.6739H99.7967L103.22 24.7654H103.285L106.6 16.6739H108.788L104.65 26.0718C104.022 27.5046 103.372 28.5161 102.743 29.0639C102.072 29.6539 101.227 29.9489 100.165 29.9489C99.7101 29.9489 99.4284 29.9068 99.2551 29.8225Z" fill="#18181F"/>
<path d="M110.522 32.4566H108.594V28.0734H109.569C110.392 27.61 110.869 26.4722 110.977 24.66L111.475 16.6739H120.294V28.0734H121.984V32.4566H120.055V29.8646H110.5V32.4566H110.522ZM112.927 24.7443C112.819 26.3246 112.515 27.3993 111.995 27.9893V28.0525H118.192V18.4018H113.339L112.927 24.7443Z" fill="#18181F"/>
<path d="M132.947 19.94H132.817L125.927 29.8434H123.89V16.6739H125.97V26.6196H126.1L132.99 16.6739H135.027V29.8434H132.947V19.94Z" fill="#18181F"/>
<path d="M139.338 29.8434H136.933L140.703 24.6177C139.772 24.3861 139.013 23.9225 138.45 23.2482C137.887 22.5527 137.605 21.7311 137.605 20.7827C137.605 19.5607 138.017 18.5704 138.862 17.8118C139.707 17.0532 140.812 16.6739 142.155 16.6739H147.42V29.8434H145.318V24.8918H142.87L139.338 29.8434ZM145.34 18.4018H142.588C141.7 18.4018 141.007 18.6125 140.508 19.0339C140.01 19.4554 139.772 20.0454 139.772 20.8039C139.772 21.5625 140.01 22.1734 140.508 22.5739C141.007 22.9954 141.678 23.2061 142.588 23.2061H145.34V18.4018Z" fill="#18181F"/>
<path d="M82.6149 39.3889C84.6301 39.3889 86.2765 39.9789 87.5333 41.18C88.7901 42.3811 89.4183 43.9616 89.4183 45.9211C89.4183 47.8807 88.7681 49.4611 87.4682 50.6623C86.1681 51.8632 84.4782 52.4532 82.3982 52.4532H78.52V58.4796H74.4033V39.3678H82.6149V39.3889ZM78.52 49.3346H81.5101C82.68 49.3346 83.6116 49.0396 84.2616 48.4496C84.9117 47.8596 85.2365 47.0168 85.2365 45.9423C85.2365 44.8466 84.9117 44.0246 84.2616 43.4346C83.6116 42.8446 82.7016 42.5707 81.5316 42.5707H78.5416V49.3346H78.52Z" fill="#18181F"/>
<path d="M105.278 58.5007H92.2568V39.3889H105.278V42.6761H96.3735V47.2907H104.78V50.3673H96.3735V55.1716H105.278V58.5007Z" fill="#18181F"/>
<path d="M129.458 58.5007H125.797V45.605H125.688L120.358 58.3111H117.78L112.45 45.605H112.342V58.5007H108.68V39.3889H113.447L119.037 52.9377H119.145L124.735 39.3889H129.502V58.5007H129.458Z" fill="#18181F"/>
<path d="M149.088 41.7068C150.8 43.4768 151.645 45.9 151.645 48.9343C151.645 51.9684 150.8 54.3707 149.088 56.1407C147.377 57.9107 145.08 58.7957 142.177 58.7957C139.273 58.7957 136.955 57.9107 135.265 56.1407C133.553 54.3707 132.708 51.9684 132.708 48.9343C132.708 45.8789 133.553 43.4768 135.265 41.7068C136.955 39.9368 139.273 39.0518 142.177 39.0518C145.08 39.0518 147.377 39.9368 149.088 41.7068ZM138.32 44.1722C137.367 45.3522 136.868 46.9534 136.868 48.9554C136.868 50.9572 137.345 52.5375 138.298 53.7175C139.252 54.8975 140.53 55.4875 142.155 55.4875C143.758 55.4875 145.037 54.8975 145.99 53.7175C146.943 52.5375 147.42 50.9361 147.42 48.9554C147.42 46.9534 146.943 45.3522 145.99 44.1722C145.037 42.9922 143.758 42.4022 142.155 42.4022C140.552 42.3811 139.273 42.9711 138.32 44.1722Z" fill="#18181F"/>
<path d="M167.592 58.5007V50.4516H158.752V58.5007H154.635V39.3889H158.752V47.1432H167.592V39.3889H171.709V58.5007H167.592Z" fill="#18181F"/>
<path d="M180.311 58.5007V42.6973H174.569V39.41H190.191V42.6973H184.427V58.5007H180.311Z" fill="#18181F"/>
<path d="M202.128 53.865H195.217L193.722 58.5007H189.496L196.321 39.3889H201.153L207.979 58.5007H203.601L202.128 53.865ZM196.106 50.8727H201.241L198.728 43.0554H198.64L196.106 50.8727Z" fill="#18181F"/>
</svg>
