<svg width="19" height="19" viewBox="0 0 19 19" fill="none" xmlns="http://www.w3.org/2000/svg">
<g clip-path="url(#clip0)">
<path d="M18.9033 0.778118C18.8187 0.703936 18.6983 0.686725 18.5963 0.73404L0.164343 9.29807C0.0651111 9.34419 0.00120979 9.44319 1.69631e-05 9.55259C-0.00117586 9.66199 0.0606238 9.76236 0.15889 9.81058L5.37511 12.3705C5.47077 12.4175 5.58482 12.4069 5.67025 12.343L10.7419 8.55244L6.76044 12.6478C6.70364 12.7063 6.67467 12.7863 6.68092 12.8675L7.07733 18.0301C7.08614 18.1445 7.16282 18.2423 7.27182 18.2782C7.30096 18.2877 7.33089 18.2924 7.36049 18.2924C7.44166 18.2924 7.52061 18.2575 7.57554 18.1939L10.3441 14.9857L13.7667 16.621C13.841 16.6565 13.927 16.658 14.0025 16.6251C14.078 16.5922 14.1354 16.5283 14.1601 16.4498L18.987 1.07672C19.0207 0.969367 18.9878 0.8523 18.9033 0.778118Z" fill="#2972C6"/>
</g>
<defs>
<clipPath id="clip0">
<rect width="19" height="19" fill="white"/>
</clipPath>
</defs>
</svg>
