<svg width="1423" height="264" fill="none" xmlns="http://www.w3.org/2000/svg"><path d="M173.188 259h44.624l-84-236.742H86.07L2.07 259h43.64l20.18-61.195h87.118L173.188 259zM108.875 64.094h1.148L143 165.156H75.734l33.141-101.062zm199.008 165.539c-19.031 0-31.5-9.188-31.5-23.625 0-14.602 11.812-23.133 34.125-24.61l41.015-2.625v13.618c0 21.82-18.867 37.242-43.64 37.242zm-11.977 31.336c23.789 0 45.938-11.649 55.782-30.844h.984V259h39.211V136.117c0-35.601-29.039-58.898-73.828-58.898-42.164 0-72.68 23.461-73.664 56.273h37.734c2.789-14.437 16.078-24.117 34.617-24.117 21.985 0 34.781 10.336 34.781 29.367v13.125l-46.593 2.789c-45.118 2.789-69.563 21-69.563 52.992 0 31.829 25.266 53.321 60.539 53.321z" fill="#2972C6"/><path d="M173.188 259l-.95.313.226.687h.724v-1zm44.624 0v1h1.416l-.473-1.334-.943.334zm-84-236.742l.943-.335-.236-.665h-.707v1zm-47.742 0v-1h-.706l-.236.665.942.335zM2.07 259l-.942-.334L.654 260H2.07v-1zm43.64 0v1h.724l.227-.687-.95-.313zm20.18-61.195v-1h-.723l-.226.687.95.313zm87.118 0l.95-.313-.227-.687h-.723v1zM108.875 64.094v-1h-.724l-.226.688.95.312zm1.148 0l.951-.31-.225-.69h-.726v1zM143 165.156v1h1.378l-.427-1.31-.951.31zm-67.266 0l-.95-.311-.43 1.311h1.38v-1zM173.188 260h44.624v-2h-44.624v2zm45.567-1.334l-84-236.743-1.885.67 84 236.741 1.885-.668zM133.812 21.258H86.07v2h47.742v-2zm-48.684.665l-84 236.743 1.885.668 84-236.742-1.885-.669zM2.07 260h43.64v-2H2.07v2zm44.59-.687l20.18-61.195-1.9-.626-20.179 61.195 1.9.626zm19.23-60.508h87.118v-2H65.891v2zm86.168-.687l20.18 61.195 1.899-.626-20.179-61.195-1.9.626zM108.875 65.094h1.148v-2h-1.148v2zm.198-.69l32.976 101.062 1.902-.62-32.977-101.063-1.901.621zM143 164.156H75.734v2H143v-2zm-66.315 1.312l33.14-101.063-1.9-.623-33.14 101.063 1.9.623zm233.823 15.93l-.064-.998-.002.001.066.997zm41.015-2.625h1v-1.066l-1.063.068.063.998zm.165 51.352v-1h-.612l-.278.544.89.456zm.984 0h1v-1h-1v1zm0 28.875h-1v1h1v-1zm39.211 0v1h1v-1h-1zM244.391 133.492l-1-.03-.031 1.03h1.031v-1zm37.734 0v1h.825l.157-.81-.982-.19zm69.398 18.375l.06.998.94-.056v-.942h-1zm-46.593 2.789l-.06-.998h-.002l.062.998zm2.953 73.977c-9.368 0-17.013-2.263-22.289-6.2-5.248-3.917-8.211-9.529-8.211-16.425h-2c0 7.541 3.271 13.741 9.015 18.028 5.716 4.266 13.821 6.597 23.485 6.597v-2zm-30.5-22.625c0-6.986 2.804-12.465 8.28-16.416 5.528-3.988 13.846-6.464 24.911-7.196l-.132-1.995c-11.248.744-19.992 3.272-25.949 7.569-6.008 4.335-9.11 10.422-9.11 18.038h2zm33.189-23.612l41.015-2.625-.127-1.996-41.016 2.625.128 1.996zm39.951-3.623v13.618h2v-13.618h-2zm0 13.618c0 21.114-18.252 36.242-42.64 36.242v2c25.158 0 44.64-15.716 44.64-38.242h-2zm-54.617 69.578c24.084 0 46.623-11.793 56.671-31.388l-1.779-.912c-9.639 18.796-31.398 30.3-54.892 30.3v2zm55.782-30.844h.984v-2h-.984v2zm-.016-1V259h2v-28.875h-2zm1 29.875h39.211v-2h-39.211v2zm40.211-1V136.117h-2V259h2zm0-122.883c0-18.098-7.394-33.113-20.494-43.58-13.079-10.452-31.776-16.318-54.334-16.318v2c22.23 0 40.448 5.782 53.085 15.88 12.617 10.08 19.743 24.515 19.743 42.018h2zm-74.828-59.898c-42.475 0-73.657 23.686-74.664 57.243l1.999.06c.962-32.068 30.811-55.303 72.665-55.303v-2zm-73.664 58.273h37.734v-2h-37.734v2zm38.716-.81c2.674-13.845 15.439-23.307 33.635-23.307v-2c-18.881 0-32.695 9.897-35.599 24.928l1.964.379zm33.635-23.307c10.852 0 19.287 2.552 24.994 7.315 5.679 4.739 8.787 11.776 8.787 21.052h2c0-9.755-3.29-17.401-9.505-22.588-6.188-5.163-15.143-7.779-26.276-7.779v2zm33.781 28.367v13.125h2v-13.125h-2zm.941 12.127l-46.594 2.789.119 1.996 46.594-2.789-.119-1.996zm-46.596 2.789c-22.659 1.401-40.272 6.68-52.242 15.746-12.017 9.102-18.259 21.957-18.259 38.244h2c0-15.704 5.981-27.951 17.466-36.65 11.532-8.734 28.7-13.955 51.158-15.344l-.123-1.996zm-70.501 53.99c0 16.197 6.437 29.804 17.385 39.35 10.937 9.536 26.318 14.971 44.154 14.971v-2c-17.437 0-32.325-5.311-42.84-14.479-10.503-9.157-16.699-22.21-16.699-37.842h-2zm466.281-94.5h-1v1h1v-1zm0-55.289v-1h-1v1h1zm108.118 0v1h1v-1h-1zm0-35.601h1v-1h-1v1zm-150.446 0v-1h-1v1h1zm0 236.742h-1v1h1v-1zm42.328-34.781h-1v1h1v-1zm0-77.274v-1h-1v1h1zm131.594 38.719c0-21.847-8.439-40.252-22.955-53.185-14.506-12.925-35.018-20.331-59.092-20.331v2c23.668 0 43.68 7.278 57.762 19.824 14.072 12.538 22.285 30.391 22.285 51.692h2zm-82.047-73.516h-49.547v2h49.547v-2zm-48.547 1V57.859h-2v55.289h2zm-1-54.289h108.118v-2H700.648v2zm109.118-1V22.258h-2v35.601h2zm-1-36.601H658.32v2h150.446v-2zm-151.446 1V259h2V22.258h-2zm1 237.742h93.188v-2H658.32v2zm93.188 0c23.751 0 43.939-7.45 58.199-20.504 14.269-13.06 22.535-31.668 22.535-53.832h-2c0 21.641-8.058 39.701-21.885 52.357C794.522 250.685 774.842 258 751.508 258v2zm-49.86-35.781v-77.274h-2v77.274h2zm-1-76.274h40.032v-2h-40.032v2zm40.032 0c14.878 0 26.434 3.376 34.253 9.723 7.787 6.32 11.997 15.692 11.997 27.996h2c0-12.798-4.404-22.785-12.736-29.549-8.301-6.737-20.369-10.17-35.514-10.17v2zm46.25 37.719c0 12.22-4.209 21.551-11.976 27.852-7.799 6.327-19.315 9.703-34.11 9.703v2c15.064 0 27.091-3.433 35.37-10.149 8.311-6.742 12.716-16.688 12.716-29.406h-2zm-46.086 37.555h-40.196v2h40.196v-2zM893.75 118.07v1h.599l.283-.528-.882-.472zm-1.312 0l-.992-.13-.148 1.13h1.14v-1zm68.578-73.5l-.029-1h-.006l.035 1zm16.898-.492l.029 1h.007l-.036-1zm44.626-8.86l.66.753.34-.298v-.454h-1zm0-32.976h1V.573l-1.47.787.47.882zm-46.923 8.367l.028 1h.012l-.04-1zm-17.719.493l-.027-1h-.009l.036 1zm-10.171 252.507c26.965 0 48.902-8.773 64.093-24.777 15.19-15.998 23.53-39.112 23.53-67.605h-2c0 28.107-8.22 50.685-22.98 66.228-14.749 15.537-36.124 24.154-62.643 24.154v2zm87.623-92.382c0-26.528-7.85-48.322-21.9-63.495-14.057-15.181-34.229-23.638-58.669-23.638v2c23.959 0 43.572 8.277 57.199 22.997 13.64 14.727 21.37 35.999 21.37 62.136h2zm-80.569-87.133c-28.85 0-50.39 11.961-61.913 33.505l1.764.943c11.117-20.785 31.906-32.448 60.149-32.448v-2zM893.75 117.07h-1.312v2h1.312v-2zm-.321 1.13c3.276-24.982 8.703-42.69 18.975-54.369 10.227-11.628 25.413-17.446 48.647-18.261l-.07-2c-23.525.826-39.347 6.738-50.079 18.94-10.687 12.151-16.17 30.374-19.456 55.43l1.983.26zm67.616-72.63l16.898-.492-.058-2-16.898.493.058 1.999zm16.905-.492c11.538-.413 21.769-1.773 29.62-3.468 3.93-.847 7.28-1.781 9.9-2.728 2.6-.935 4.59-1.919 5.73-2.91l-1.32-1.506c-.83.731-2.53 1.613-5.08 2.534-2.52.91-5.78 1.821-9.65 2.655-7.728 1.669-17.841 3.015-29.272 3.424l.072 1.998zm45.59-9.86V2.243h-2V35.22h2zm-1.47-33.858c-3.38 1.808-9.89 3.674-18.19 5.19-8.257 1.508-18.177 2.652-28.303 3.06l.08 1.999c10.218-.412 20.231-1.566 28.583-3.092 8.32-1.52 15.1-3.427 18.77-5.393l-.94-1.764zm-46.481 8.25l-17.718.492.055 2 17.719-.493-.056-2zm-17.727.492c-33.842 1.238-58.63 11.99-74.899 35.353-16.216 23.287-23.846 58.939-23.846 109.693h2c0-50.636 7.628-85.777 23.487-108.55C900.409 23.9 924.511 13.324 957.935 12.1l-.073-1.999zm-98.745 145.046c0 35.482 7.777 62.61 22.807 80.883 15.057 18.306 37.272 27.578 65.803 27.578v-2c-28.071 0-49.661-9.102-64.258-26.849-14.625-17.78-22.352-44.382-22.352-79.612h-2zm88.117 73.157c-14.093 0-25.107-5.061-32.624-14.531-7.543-9.504-11.657-23.568-11.657-41.727h-2c0 18.427 4.171 32.992 12.091 42.97 7.946 10.012 19.572 15.288 34.19 15.288v-2zm-44.281-56.258c0-17.33 4.11-30.814 11.646-39.949 7.512-9.107 18.53-14.012 32.635-14.012v-2c-14.605 0-26.228 5.102-34.178 14.74-7.928 9.609-12.103 23.605-12.103 41.221h2zm44.281-53.961c14.022 0 25.041 4.904 32.576 14.013 7.556 9.136 11.706 22.621 11.706 39.948h2c0-17.618-4.218-31.614-12.165-41.222-7.97-9.636-19.592-14.739-34.117-14.739v2zm44.282 53.961c0 18.159-4.115 32.223-11.658 41.727-7.516 9.47-18.531 14.531-32.624 14.531v2c14.618 0 26.245-5.276 34.191-15.288 7.92-9.978 12.091-24.543 12.091-42.97h-2zm430.184-37.899h-1v.908l.91.088.09-.996zm0-1.312l-.16-.987-.84.136v.851h1zM1293.9 22.258v-1h-1v1h1zm0 236.742h-1v1h1v-1zm42.33-203.766v-1h-1v1h1zm0 66.774h-1v1h1v-1zm0 104.015h-1v1h1v-1zm0-73.992v-1h-1v1h1zM1395.12 260c25.43 0 46.02-6.438 60.28-18.235 14.28-11.817 22.1-28.928 22.1-50.031h-2c0 20.569-7.6 37.091-21.38 48.49-13.79 11.417-33.89 17.776-59 17.776v2zm82.38-68.266c0-31.899-23.08-55.419-55.7-58.581l-.19 1.991c31.69 3.072 53.89 25.818 53.89 56.59h2zm-54.8-57.586v-1.312h-2v1.312h2zm-.84-.325c24.78-4.017 43.99-26.592 43.99-52.503h-2c0 24.949-18.52 46.671-42.31 50.529l.32 1.974zm43.99-52.503c0-18.243-7.05-33.296-19.59-43.772-12.53-10.46-30.46-16.29-52.12-16.29v2c21.32 0 38.75 5.737 50.83 15.825 12.07 10.073 18.88 24.55 18.88 42.237h2zm-71.71-60.062H1293.9v2h100.24v-2zm-101.24 1V259h2V22.258h-2zm1 237.742h101.22v-2H1293.9v2zm42.33-203.766h47.41v-2h-47.41v2zm47.41 0c12.41 0 22 2.882 28.47 8.182 6.43 5.276 9.91 13.05 9.91 23.139h2c0-10.584-3.67-18.97-10.64-24.686-6.95-5.692-17.05-8.635-29.74-8.635v2zm38.38 31.32c0 10.712-4.02 19.014-11.58 24.671-7.6 5.688-18.88 8.783-33.53 8.783v2c14.89 0 26.66-3.14 34.73-9.182 8.11-6.074 12.38-14.998 12.38-26.271h-2zm-45.11 33.454h-40.68v2h40.68v-2zm-39.68 1V55.234h-2v66.774h2zm0 104.015v-73.992h-2v73.992h2zm-1-72.992h47.57v-2h-47.57v2zm47.57 0c16.06 0 28.16 3.142 36.22 9.134 8.01 5.954 12.17 14.82 12.17 26.616h2c0-12.321-4.38-21.83-12.98-28.221-8.55-6.354-21.14-9.529-37.41-9.529v2zm48.39 35.75c0 11.893-4.05 20.887-11.8 26.939-7.79 6.084-19.47 9.303-34.94 9.303v2c15.7 0 27.89-3.26 36.17-9.727 8.33-6.499 12.57-16.126 12.57-28.515h-2zm-46.74 36.242h-49.22v2h49.22v-2zm160.94-72.007h-1v1h1v-1zm0-45.118v-1h-1v1h1zm0 122.883h-1v1h1v-1zm0-51.187v-1h-1v1h1zM1506.36 259h-1v1h1v-1zm110.41-93.844h-1v.875l.87.116.13-.991zm0-1.312l-.17-.985-.83.145v.84h1zM1506.36 79.68v-1h-1v1h1zm74.98 29.218c8.39 0 14.77 1.978 19.04 5.57 4.24 3.569 6.53 8.843 6.53 15.743h2c0-7.373-2.46-13.255-7.24-17.274-4.76-3.997-11.66-6.039-20.33-6.039v2zm25.57 21.313c0 7.306-2.4 12.681-7.11 16.267-4.75 3.625-12 5.538-21.91 5.538v2c10.11 0 17.87-1.943 23.12-5.947 5.31-4.043 7.9-10.07 7.9-17.858h-2zm-29.02 21.805h-31.5v2h31.5v-2zm-30.5 1v-45.118h-2v45.118h2zm-1-44.118h34.95v-2h-34.95v2zm34.13 71.696c11.39 0 19.79 2.12 25.32 6.222 5.48 4.061 8.29 10.171 8.29 18.536h2c0-8.863-3.01-15.631-9.1-20.143-6.03-4.47-14.94-6.615-26.51-6.615v2zm33.61 24.758c0 8.048-2.66 14.093-7.65 18.152-5.02 4.088-12.56 6.277-22.52 6.277v2c10.22 0 18.27-2.24 23.79-6.725 5.54-4.513 8.38-11.182 8.38-19.704h-2zm-30.17 24.429h-37.57v2h37.57v-2zm-36.57 1v-51.187h-2v51.187h2zm-1-50.187h34.13v-2h-34.13v2zM1506.36 260h85.48v-2h-85.48v2zm85.48 0c19.84 0 36.12-5.086 47.46-14.25 11.37-9.182 17.68-22.393 17.68-38.43h-2c0 15.464-6.06 28.092-16.93 36.875-10.89 8.801-26.69 13.805-46.21 13.805v2zm65.14-52.68c0-23.038-16.34-39.98-40.07-43.155l-.27 1.982c22.86 3.059 38.34 19.258 38.34 41.173h2zm-39.21-42.164v-1.312h-2v1.312h2zm-.82-.327c18.23-3.207 32-20.385 32-39.54h-2c0 18.252-13.14 34.543-30.35 37.57l.35 1.97zm32-39.54c0-14.47-5.54-26.17-15.66-34.23-10.09-8.038-24.65-12.38-42.6-12.38v2c17.65 0 31.72 4.273 41.35 11.944 9.61 7.65 14.91 18.754 14.91 32.666h2zm-58.26-46.61h-84.33v2h84.33v-2zm-85.33 1V259h2V79.68h-2z" fill="#2972C6"/></svg>