<svg width="1416" height="53" fill="none" xmlns="http://www.w3.org/2000/svg"><path d="M133.351 26.725l-.527 2.604h1.607l-.144.759h-1.62L132.072 33h-.765l.601-2.912h-2.331L128.982 33h-.758l.594-2.912h-1.565l.143-.759h1.586l.52-2.604h-1.49l.15-.752h1.49l.595-2.85h.759l-.581 2.85h2.317l.595-2.85h.759l-.588 2.85h1.695l-.143.752h-1.709zm-3.623 2.618h2.337l.527-2.625h-2.331l-.533 2.625zM136.215 33v-9.864h5.851v.847h-4.921v3.706h4.525v.834h-4.525V33h-.93zm6.986-7.102c.005-.84.308-1.536.909-2.092.597-.552 1.347-.828 2.249-.828.862 0 1.589.26 2.181.78.592.52.889 1.157.889 1.914 0 .538-.148 1.06-.445 1.565-.3.502-.861 1.178-1.681 2.03l-2.748 2.872v.027h5.127V33h-6.433v-.656l3.486-3.685c.707-.743 1.176-1.31 1.409-1.702.237-.392.355-.802.355-1.23 0-.538-.21-.994-.629-1.368-.419-.373-.932-.56-1.538-.56-.633 0-1.162.198-1.586.595-.419.4-.633.902-.642 1.504v.006h-.903v-.006zM151.213 33v-9.864h5.851v.847h-4.921v3.706h4.525v.834h-4.525V33h-.93zm6.986-7.102c.005-.84.308-1.536.909-2.092.597-.552 1.347-.828 2.249-.828.862 0 1.589.26 2.181.78.593.52.889 1.157.889 1.914 0 .538-.148 1.06-.445 1.565-.3.502-.861 1.178-1.681 2.03l-2.748 2.872v.027h5.127V33h-6.433v-.656l3.486-3.685c.707-.743 1.176-1.31 1.409-1.702.237-.392.355-.802.355-1.23 0-.538-.21-.994-.629-1.368-.419-.373-.932-.56-1.538-.56-.633 0-1.162.198-1.586.595-.419.4-.633.902-.642 1.504v.006h-.903v-.006zM166.211 33v-9.864h5.851v.847h-4.921v3.706h4.525v.834h-4.525V33h-.93zm6.986-7.102c.005-.84.308-1.536.909-2.092.597-.552 1.347-.828 2.249-.828.862 0 1.589.26 2.181.78.593.52.889 1.157.889 1.914 0 .538-.148 1.06-.445 1.565-.3.502-.861 1.178-1.681 2.03l-2.748 2.872v.027h5.127V33h-6.433v-.656l3.486-3.685c.707-.743 1.176-1.31 1.409-1.702.237-.392.355-.802.355-1.23 0-.538-.21-.994-.629-1.368-.419-.373-.932-.56-1.538-.56-.633 0-1.162.198-1.586.595-.419.4-.633.902-.642 1.504v.006h-.903v-.006zm202.154.827l-.527 2.604h1.607l-.144.759h-1.62L374.072 33h-.765l.601-2.912h-2.331L370.982 33h-.758l.594-2.912h-1.565l.143-.759h1.586l.52-2.604h-1.49l.15-.752h1.49l.595-2.85h.759l-.581 2.85h2.317l.595-2.85h.759l-.588 2.85h1.695l-.143.752h-1.709zm-3.623 2.618h2.337l.527-2.625h-2.331l-.533 2.625zm8.879-5.216h-.027l-1.087.766a39.5 39.5 0 01-1.558 1.052v-.998c.091-.054.537-.362 1.339-.923a68.054 68.054 0 011.32-.902h.916V33h-.903v-8.873zm3.295 1.77c.005-.838.308-1.535.91-2.091.597-.552 1.346-.828 2.249-.828.861 0 1.588.26 2.18.78.593.52.889 1.157.889 1.914 0 .538-.148 1.06-.444 1.565-.301.502-.862 1.178-1.682 2.03l-2.748 2.872v.027h5.127V33h-6.433v-.656l3.487-3.685c.706-.743 1.175-1.31 1.408-1.702.237-.392.355-.802.355-1.23 0-.538-.209-.994-.629-1.368-.419-.373-.932-.56-1.538-.56-.633 0-1.162.198-1.586.595-.419.4-.633.902-.642 1.504v.006h-.903v-.006zm10.405-1.77h-.028l-1.087.766a37.89 37.89 0 01-1.558 1.052v-.998c.091-.054.538-.362 1.34-.923a66.317 66.317 0 011.319-.902h.916V33h-.902v-8.873zm3.295 1.77c.004-.838.307-1.535.909-2.091.597-.552 1.346-.828 2.249-.828.861 0 1.588.26 2.18.78.593.52.889 1.157.889 1.914 0 .538-.148 1.06-.444 1.565-.301.502-.862 1.178-1.682 2.03l-2.748 2.872v.027h5.127V33h-6.433v-.656l3.487-3.685c.706-.743 1.176-1.31 1.408-1.702.237-.392.355-.802.355-1.23 0-.538-.209-.994-.628-1.368-.42-.373-.932-.56-1.539-.56-.633 0-1.162.198-1.586.595-.419.4-.633.902-.642 1.504v.006h-.902v-.006zm10.404-1.77h-.027l-1.087.766c-.73.51-1.249.86-1.559 1.052v-.998c.091-.054.538-.362 1.34-.923a69.934 69.934 0 011.319-.902h.916V33h-.902v-8.873zm8.62-.13v-.027h-5.489v-.834h6.425v.875L413.044 33h-.991l4.573-9.003zm200.725 2.728l-.527 2.604h1.607l-.144.759h-1.62L616.072 33h-.765l.601-2.912h-2.331L612.982 33h-.758l.594-2.912h-1.565l.143-.759h1.586l.52-2.604h-1.49l.15-.752h1.49l.595-2.85h.759l-.581 2.85h2.317l.595-2.85h.759l-.588 2.85h1.695l-.143.752h-1.709zm-3.623 2.618h2.337l.527-2.625h-2.331l-.533 2.625zm8.879-5.216h-.027l-1.087.766a39.5 39.5 0 01-1.558 1.052v-.998c.091-.054.537-.362 1.339-.923a68.054 68.054 0 011.32-.902h.916V33h-.903v-8.873zm6.659 9.03c-1.03 0-1.876-.266-2.537-.8-.651-.533-.977-1.212-.977-2.037a2.4 2.4 0 01.608-1.627c.406-.465.937-.768 1.593-.909v-.02c-.56-.155-1.005-.429-1.333-.82a2.111 2.111 0 01-.492-1.388c0-.748.296-1.363.889-1.846.592-.488 1.342-.732 2.249-.732.911 0 1.661.244 2.249.732.588.483.881 1.098.881 1.846 0 .52-.164.977-.492 1.374-.328.396-.77.674-1.326.834v.02c.656.142 1.187.445 1.593.91a2.4 2.4 0 01.608 1.626c0 .83-.326 1.509-.977 2.037-.656.534-1.502.8-2.536.8zm0-.82c.756 0 1.374-.196 1.852-.588.474-.387.711-.882.711-1.483 0-.593-.237-1.078-.711-1.456-.478-.379-1.096-.568-1.852-.568-.752 0-1.368.19-1.846.568-.479.378-.718.863-.718 1.456 0 .601.237 1.096.711 1.483.479.392 1.096.588 1.853.588zm0-4.929c.642 0 1.171-.166 1.586-.499.41-.332.615-.759.615-1.278 0-.533-.203-.973-.609-1.32-.41-.346-.941-.519-1.592-.519-.652 0-1.183.173-1.593.52-.41.346-.615.786-.615 1.319 0 .52.207.945.622 1.278.41.333.938.5 1.586.5zm7.423-3.281h-.027l-1.087.766a39.5 39.5 0 01-1.558 1.052v-.998c.091-.054.537-.362 1.339-.923a68.054 68.054 0 011.32-.902h.916V33h-.903v-8.873zm6.659 9.03c-1.03 0-1.876-.266-2.536-.8-.652-.533-.978-1.212-.978-2.037a2.4 2.4 0 01.608-1.627c.406-.465.937-.768 1.593-.909v-.02c-.56-.155-1.005-.429-1.333-.82a2.111 2.111 0 01-.492-1.388c0-.748.296-1.363.889-1.846.592-.488 1.342-.732 2.249-.732.911 0 1.661.244 2.249.732.588.483.882 1.098.882 1.846 0 .52-.165.977-.493 1.374-.328.396-.77.674-1.326.834v.02c.656.142 1.187.445 1.593.91.406.464.608 1.007.608 1.626 0 .83-.326 1.509-.977 2.037-.656.534-1.502.8-2.536.8zm0-.82c.756 0 1.374-.196 1.852-.588.474-.387.711-.882.711-1.483 0-.593-.237-1.078-.711-1.456-.478-.379-1.096-.568-1.852-.568-.752 0-1.368.19-1.846.568-.479.378-.718.863-.718 1.456 0 .601.237 1.096.711 1.483.479.392 1.096.588 1.853.588zm0-4.929c.642 0 1.171-.166 1.586-.499.41-.332.615-.759.615-1.278 0-.533-.203-.973-.609-1.32-.41-.346-.941-.519-1.592-.519-.652 0-1.183.173-1.593.52-.41.346-.615.786-.615 1.319 0 .52.207.945.622 1.278.41.333.939.5 1.586.5zm7.423-3.281h-.027l-1.087.766a37.89 37.89 0 01-1.558 1.052v-.998c.091-.054.537-.362 1.339-.923a68.054 68.054 0 011.32-.902h.916V33h-.903v-8.873zM654.285 33v-9.864h5.852v.847h-4.922v3.706h4.525v.834h-4.525V33h-.93zm448.065-6.275l-.53 2.604h1.61l-.14.759h-1.62l-.6 2.912h-.76l.6-2.912h-2.33l-.6 2.912h-.76l.6-2.912h-1.57l.15-.759h1.58l.52-2.604h-1.49l.15-.752h1.49l.6-2.85h.76l-.59 2.85h2.32l.6-2.85h.76l-.59 2.85h1.69l-.14.752h-1.71zm-3.62 2.618h2.34l.52-2.625h-2.33l-.53 2.625zm6.35-3.445c0-.84.31-1.536.91-2.092.59-.552 1.34-.828 2.25-.828.86 0 1.58.26 2.18.78.59.52.89 1.157.89 1.914 0 .538-.15 1.06-.45 1.565-.3.502-.86 1.178-1.68 2.03l-2.75 2.872v.027h5.13V33h-6.43v-.656l3.48-3.685c.71-.743 1.18-1.31 1.41-1.702.24-.392.36-.802.36-1.23 0-.538-.21-.994-.63-1.368-.42-.373-.93-.56-1.54-.56-.63 0-1.16.198-1.59.595-.42.4-.63.902-.64 1.504v.006h-.9v-.006zm10.97 7.26c-.83 0-1.53-.23-2.11-.691-.58-.456-.94-1.06-1.08-1.812h.95c.13.502.39.905.79 1.21.41.315.9.472 1.46.472.88 0 1.56-.39 2.06-1.169.49-.766.74-1.843.77-3.233l-.01-.226h-.01c-.19.556-.55 1.01-1.09 1.36-.54.351-1.14.527-1.82.527-.94 0-1.72-.308-2.34-.923-.62-.62-.93-1.392-.93-2.317 0-.976.32-1.782.97-2.42.64-.639 1.46-.957 2.45-.957 1.38 0 2.39.622 3.02 1.866.44.77.66 1.775.66 3.014 0 1.655-.33 2.951-.99 3.89-.66.939-1.58 1.408-2.75 1.408zm.06-4.39c.71 0 1.3-.232 1.79-.697.49-.465.73-1.03.73-1.695 0-.716-.24-1.32-.72-1.812a2.425 2.425 0 00-1.79-.745c-.7 0-1.29.242-1.77.725s-.72 1.078-.72 1.784c0 .693.23 1.272.7 1.736.47.47 1.07.705 1.78.705zm9.97-4.77v-.028h-5.48v-.834h6.42v.875L1122.5 33h-.99l4.57-9.003zm2.25 1.9c.01-.84.31-1.536.91-2.092.6-.552 1.35-.828 2.25-.828.86 0 1.59.26 2.18.78.6.52.89 1.157.89 1.914 0 .538-.15 1.06-.44 1.565-.3.502-.86 1.178-1.68 2.03l-2.75 2.872v.027h5.12V33h-6.43v-.656l3.49-3.685c.7-.743 1.17-1.31 1.41-1.702.23-.392.35-.802.35-1.23 0-.538-.21-.994-.63-1.368-.42-.373-.93-.56-1.54-.56-.63 0-1.16.198-1.58.595-.42.4-.63.902-.64 1.504v.006h-.91v-.006zm12.01 7.26c-1.34 0-2.41-.463-3.2-1.389-.79-.92-1.19-2.162-1.19-3.725 0-1.545.4-2.775 1.2-3.692.79-.916 1.85-1.373 3.19-1.373 1.05 0 1.94.307 2.68.922.75.611 1.19 1.4 1.32 2.366h-.93a2.856 2.856 0 00-1.06-1.744c-.57-.45-1.24-.676-2.01-.676-1.04 0-1.88.378-2.5 1.134-.62.761-.93 1.782-.93 3.063 0 1.299.31 2.331.93 3.097.62.765 1.46 1.148 2.51 1.148.79 0 1.46-.198 2.01-.595.55-.396.9-.934 1.05-1.613h.93c-.17.962-.61 1.714-1.32 2.256-.71.547-1.6.82-2.68.82zm8.76 0c-1.37 0-2.38-.623-3.01-1.867-.45-.77-.67-1.775-.67-3.015 0-1.654.34-2.95 1-3.89.66-.938 1.58-1.407 2.75-1.407.82 0 1.52.227 2.1.683.58.456.94 1.062 1.08 1.819h-.94a2.148 2.148 0 00-.8-1.217c-.41-.306-.9-.458-1.45-.458-.9 0-1.6.4-2.09 1.203-.5.806-.74 1.941-.74 3.404h.02c.2-.556.57-1.007 1.1-1.353a3.26 3.26 0 011.8-.52c.94 0 1.72.31 2.34.93.62.62.94 1.396.94 2.33 0 .967-.33 1.769-.97 2.407-.65.633-1.47.95-2.46.95zm-.01-.835c.7 0 1.29-.241 1.77-.724s.72-1.074.72-1.77c0-.707-.24-1.295-.71-1.765-.46-.464-1.05-.697-1.77-.697-.7 0-1.29.23-1.78.69a2.252 2.252 0 00-.73 1.703c0 .72.24 1.326.72 1.818.48.497 1.08.745 1.78.745zM860.351 13.725l-.527 2.604h1.607l-.144.759h-1.62L859.072 20h-.765l.601-2.912h-2.331L855.982 20h-.758l.594-2.912h-1.565l.143-.759h1.586l.52-2.604h-1.49l.15-.752h1.49l.595-2.85h.759l-.581 2.85h2.317l.595-2.85h.759l-.588 2.85h1.695l-.143.752h-1.709zm-3.623 2.618h2.337l.527-2.625h-2.331l-.533 2.625zM863.215 20v-9.864h5.851v.847h-4.921v3.705h4.525v.835h-4.525V20h-.93zm10.514.157c-1.117 0-1.992-.46-2.625-1.38-.634-.908-.951-2.145-.951-3.713 0-1.558.317-2.793.951-3.705.642-.92 1.517-1.38 2.625-1.38 1.111 0 1.986.46 2.625 1.38.628.907.943 2.14.943 3.699 0 1.567-.315 2.807-.943 3.718-.639.92-1.514 1.381-2.625 1.381zm0-.82c.824 0 1.472-.385 1.941-1.155.46-.761.69-1.8.69-3.117 0-1.308-.232-2.343-.697-3.104-.469-.77-1.114-1.155-1.934-1.155-.816 0-1.461.387-1.935 1.162-.465.765-.697 1.795-.697 3.09 0 1.321.23 2.363.69 3.124.47.77 1.117 1.155 1.942 1.155zm8.476.82c-1.376 0-2.381-.622-3.015-1.866-.442-.77-.663-1.775-.663-3.015 0-1.654.333-2.95.998-3.89.661-.938 1.577-1.407 2.748-1.407.821 0 1.52.227 2.099.683.579.456.939 1.062 1.08 1.818h-.943a2.114 2.114 0 00-.8-1.216c-.41-.306-.891-.458-1.442-.458-.903 0-1.6.4-2.092 1.203-.497.806-.745 1.941-.745 3.404h.02c.201-.556.57-1.007 1.108-1.353a3.226 3.226 0 011.797-.52c.939 0 1.719.31 2.338.93.625.62.937 1.396.937 2.33 0 .967-.324 1.769-.971 2.407-.647.633-1.465.95-2.454.95zm-.007-.834a2.4 2.4 0 001.764-.724 2.422 2.422 0 00.718-1.77c0-.707-.235-1.295-.704-1.764-.465-.465-1.055-.698-1.771-.698-.702 0-1.296.23-1.784.69a2.273 2.273 0 00-.725 1.703c0 .72.24 1.326.718 1.818a2.39 2.39 0 001.784.745zm8.087.834c-1.03 0-1.875-.266-2.536-.8-.652-.533-.978-1.212-.978-2.037 0-.62.203-1.162.609-1.627.405-.464.936-.768 1.593-.909v-.02c-.561-.155-1.005-.429-1.333-.82a2.112 2.112 0 01-.493-1.388c0-.748.297-1.363.889-1.846.593-.488 1.342-.731 2.249-.731.912 0 1.661.243 2.249.731.588.483.882 1.098.882 1.846 0 .52-.164.977-.492 1.374-.328.396-.77.674-1.326.834v.02c.656.141 1.187.444 1.592.91.406.464.609 1.007.609 1.626 0 .83-.326 1.509-.978 2.037-.656.534-1.501.8-2.536.8zm0-.82c.757 0 1.374-.196 1.853-.588.474-.387.711-.882.711-1.483 0-.593-.237-1.078-.711-1.456-.479-.379-1.096-.568-1.853-.568-.752 0-1.367.19-1.846.568-.478.378-.717.863-.717 1.456 0 .601.237 1.096.711 1.483.478.392 1.096.588 1.852.588zm0-4.929c.643 0 1.171-.166 1.586-.499.41-.333.615-.759.615-1.278a1.66 1.66 0 00-.608-1.32c-.41-.346-.941-.519-1.593-.519s-1.182.173-1.593.52c-.41.346-.615.786-.615 1.319 0 .52.208.945.622 1.278.41.333.939.5 1.586.5zm8.449 5.75c-1.376 0-2.381-.623-3.014-1.867-.442-.77-.663-1.775-.663-3.015 0-1.654.332-2.95.998-3.89.66-.938 1.577-1.407 2.748-1.407.82 0 1.52.227 2.098.683.579.456.939 1.062 1.08 1.818h-.943a2.114 2.114 0 00-.8-1.216c-.41-.306-.891-.458-1.442-.458-.902 0-1.6.4-2.092 1.203-.497.806-.745 1.941-.745 3.404h.02c.201-.556.57-1.007 1.108-1.353a3.227 3.227 0 011.798-.52c.939 0 1.718.31 2.338.93.624.62.936 1.396.936 2.33 0 .967-.323 1.769-.971 2.407-.647.633-1.465.95-2.454.95zm-.006-.835a2.4 2.4 0 001.763-.724c.479-.483.718-1.074.718-1.77 0-.707-.235-1.295-.704-1.764-.465-.465-1.055-.698-1.771-.698-.701 0-1.296.23-1.784.69a2.272 2.272 0 00-.724 1.703c0 .72.239 1.326.717 1.818.483.497 1.078.745 1.785.745zm8.086.834c-.902 0-1.663-.255-2.283-.765a2.696 2.696 0 01-1.025-1.962h.916c.064.551.321 1.007.772 1.367.452.355.996.533 1.634.533.734 0 1.338-.235 1.812-.704.469-.465.704-1.06.704-1.784 0-.72-.235-1.317-.704-1.791-.465-.474-1.055-.711-1.771-.711-1.057 0-1.83.42-2.317 1.258h-.896l.561-5.462h5.469v.834h-4.697l-.369 3.643h.027c.52-.724 1.311-1.087 2.373-1.087.938 0 1.718.313 2.337.937.616.624.923 1.41.923 2.358 0 .976-.326 1.775-.977 2.4-.652.624-1.481.936-2.489.936zm-46.463 18.568l-.527 2.604h1.607l-.144.759h-1.62L859.072 45h-.765l.601-2.912h-2.331L855.982 45h-.758l.594-2.912h-1.565l.143-.759h1.586l.52-2.604h-1.49l.15-.752h1.49l.595-2.85h.759l-.581 2.85h2.317l.595-2.85h.759l-.588 2.85h1.695l-.143.752h-1.709zm-3.623 2.618h2.337l.527-2.625h-2.331l-.533 2.625zm9.734-6.207c1.476 0 2.625.43 3.445 1.292.821.866 1.231 2.078 1.231 3.637 0 1.563-.41 2.775-1.231 3.636-.816.866-1.964 1.299-3.445 1.299h-3.247v-9.864h3.247zm-2.311 9.016h2.256c1.212 0 2.147-.353 2.803-1.06.652-.706.978-1.713.978-3.02 0-1.313-.326-2.323-.978-3.029-.656-.706-1.591-1.06-2.803-1.06h-2.256v8.17zm11.676-9.016c1.477 0 2.625.43 3.445 1.292.821.866 1.231 2.078 1.231 3.637 0 1.563-.41 2.775-1.231 3.636-.815.866-1.964 1.299-3.445 1.299h-3.247v-9.864h3.247zm-2.31 9.016h2.255c1.213 0 2.147-.353 2.803-1.06.652-.706.978-1.713.978-3.02 0-1.313-.326-2.323-.978-3.029-.656-.706-1.59-1.06-2.803-1.06h-2.255v8.17zm11.641 1.005c-.902 0-1.663-.255-2.283-.765a2.696 2.696 0 01-1.025-1.962h.916c.063.551.321 1.007.772 1.367.451.355.996.533 1.634.533.734 0 1.337-.235 1.811-.704.47-.465.705-1.06.705-1.784 0-.72-.235-1.317-.705-1.791-.464-.474-1.055-.711-1.77-.711-1.057 0-1.83.42-2.317 1.258H882l.561-5.462h5.468v.834h-4.696l-.369 3.643h.027c.52-.724 1.31-1.087 2.372-1.087.939 0 1.718.313 2.338.937.615.624.923 1.41.923 2.358 0 .976-.326 1.775-.978 2.4-.651.624-1.481.936-2.488.936zm10.275-3.178h-4.143L890.196 45h-.991l3.691-9.864h.93L897.511 45h-.985l-1.093-3.022zm-3.863-.807h3.582l-1.77-4.881h-.041l-1.771 4.88zm9.906 3.985c-.83 0-1.534-.23-2.113-.69-.578-.456-.936-1.06-1.073-1.812h.95c.123.502.385.905.786 1.21.411.315.896.472 1.456.472.88 0 1.568-.39 2.065-1.169.488-.766.743-1.843.765-3.233l-.006-.226h-.014c-.187.556-.549 1.01-1.087 1.36a3.255 3.255 0 01-1.818.527c-.939 0-1.721-.308-2.345-.923-.62-.62-.93-1.392-.93-2.318 0-.975.324-1.781.971-2.42.647-.638 1.465-.957 2.454-.957 1.381 0 2.386.623 3.015 1.867.442.77.663 1.775.663 3.014 0 1.655-.328 2.951-.985 3.89-.665.939-1.583 1.408-2.754 1.408zm.061-4.388c.706 0 1.303-.233 1.791-.698.483-.465.725-1.03.725-1.695 0-.715-.24-1.32-.718-1.811a2.414 2.414 0 00-1.791-.746c-.702 0-1.292.242-1.771.725-.478.483-.717 1.078-.717 1.784 0 .693.232 1.272.697 1.736.474.47 1.069.705 1.784.705zm8.436 4.388c-.903 0-1.664-.255-2.284-.765a2.696 2.696 0 01-1.025-1.962h.916c.064.551.321 1.007.773 1.367.451.355.995.533 1.633.533.734 0 1.338-.235 1.812-.704.469-.465.704-1.06.704-1.784 0-.72-.235-1.317-.704-1.791-.465-.474-1.055-.711-1.771-.711-1.057 0-1.829.42-2.317 1.258h-.896l.561-5.462h5.469v.834h-4.697l-.369 3.643h.028c.519-.724 1.31-1.087 2.372-1.087.939 0 1.718.313 2.338.937.615.624.922 1.41.922 2.358 0 .976-.325 1.775-.977 2.4-.652.624-1.481.936-2.488.936zm436.377-31.432l-.53 2.604h1.61l-.14.759h-1.62l-.6 2.912h-.76l.6-2.912h-2.33l-.6 2.912h-.76l.6-2.912h-1.57l.15-.759h1.58l.52-2.604h-1.49l.15-.752h1.49l.6-2.85h.76l-.59 2.85h2.32l.6-2.85h.76l-.59 2.85h1.69l-.14.752h-1.71zm-3.62 2.618h2.34l.52-2.625h-2.33l-.53 2.625zm6.35-3.445c0-.84.31-1.536.91-2.092.59-.552 1.34-.827 2.25-.827.86 0 1.58.26 2.18.779.59.52.89 1.157.89 1.914 0 .538-.15 1.06-.45 1.565-.3.502-.86 1.178-1.68 2.03l-2.75 2.872v.027h5.13V20h-6.43v-.656l3.48-3.685c.71-.743 1.18-1.31 1.41-1.702.24-.392.36-.802.36-1.23 0-.538-.21-.994-.63-1.368-.42-.373-.93-.56-1.54-.56-.63 0-1.16.198-1.59.595-.42.4-.63.902-.64 1.504v.006h-.9v-.006zm11.22 7.26c-1.03 0-1.87-.267-2.53-.8-.66-.534-.98-1.213-.98-2.038 0-.62.2-1.162.61-1.627.4-.464.93-.768 1.59-.909v-.02c-.56-.155-1-.429-1.33-.82a2.1 2.1 0 01-.49-1.388c0-.748.29-1.363.88-1.846.6-.488 1.35-.731 2.25-.731.91 0 1.66.243 2.25.731.59.483.88 1.098.88 1.846 0 .52-.16.977-.49 1.374-.33.396-.77.674-1.32.834v.02c.65.141 1.18.444 1.59.91.4.464.61 1.007.61 1.626 0 .83-.33 1.509-.98 2.037-.66.534-1.5.8-2.54.8zm0-.821c.76 0 1.38-.196 1.86-.588.47-.387.71-.882.71-1.483 0-.593-.24-1.078-.71-1.456-.48-.379-1.1-.568-1.86-.568-.75 0-1.36.19-1.84.568-.48.378-.72.863-.72 1.456 0 .601.24 1.096.71 1.483.48.392 1.1.588 1.85.588zm0-4.929c.65 0 1.17-.166 1.59-.499.41-.333.61-.759.61-1.278 0-.533-.2-.973-.6-1.32-.41-.346-.95-.519-1.6-.519-.65 0-1.18.173-1.59.52-.41.346-.62.786-.62 1.319 0 .52.21.945.63 1.278.41.333.94.5 1.58.5zm10.03-3.41v-.028h-5.49v-.834h6.43v.875L1366.75 20h-.99l4.57-9.003zm4.22 3.513h1.15c.64 0 1.16-.178 1.57-.534.41-.355.61-.808.61-1.36 0-.542-.19-.98-.57-1.312-.39-.338-.92-.506-1.57-.506-.61 0-1.12.168-1.52.506-.4.337-.63.779-.68 1.326h-.9c.06-.793.38-1.433.94-1.921.58-.488 1.31-.731 2.2-.731.87 0 1.59.237 2.17.71.58.479.87 1.083.87 1.812 0 .615-.18 1.133-.55 1.552-.37.419-.87.686-1.51.8v.027c.76.045 1.36.285 1.81.718.45.437.68 1.004.68 1.702 0 .83-.33 1.513-.99 2.05-.65.538-1.46.807-2.43.807-.98 0-1.79-.255-2.42-.765-.62-.502-.94-1.151-.97-1.949h.9a1.8 1.8 0 00.74 1.36c.46.356 1.04.534 1.75.534s1.3-.19 1.77-.567c.46-.379.69-.86.69-1.443 0-.629-.22-1.123-.68-1.483-.45-.36-1.08-.54-1.87-.54h-1.19v-.793zm10.29 5.646c-1.35 0-2.42-.462-3.21-1.387-.79-.921-1.19-2.163-1.19-3.726 0-1.545.4-2.775 1.2-3.692.79-.915 1.86-1.373 3.2-1.373 1.04 0 1.93.307 2.68.922.74.611 1.18 1.4 1.32 2.366h-.94a2.856 2.856 0 00-1.06-1.744c-.57-.45-1.24-.676-2-.676-1.05 0-1.89.378-2.51 1.134-.62.761-.93 1.782-.93 3.063 0 1.299.31 2.331.93 3.097.62.765 1.46 1.148 2.51 1.148.79 0 1.46-.198 2.01-.595.55-.396.9-.934 1.05-1.613h.94c-.18.962-.62 1.714-1.33 2.256-.71.547-1.6.82-2.67.82zm8.59 0c-1.03 0-1.88-.266-2.54-.8-.65-.533-.97-1.212-.97-2.037 0-.62.2-1.162.6-1.627.41-.464.94-.768 1.6-.909v-.02c-.56-.155-1.01-.429-1.34-.82-.32-.397-.49-.86-.49-1.388 0-.748.3-1.363.89-1.846.59-.488 1.34-.731 2.25-.731.91 0 1.66.243 2.25.731.59.483.88 1.098.88 1.846 0 .52-.16.977-.49 1.374-.33.396-.77.674-1.33.834v.02c.66.141 1.19.444 1.59.91.41.464.61 1.007.61 1.626 0 .83-.32 1.509-.97 2.037-.66.534-1.51.8-2.54.8zm0-.82c.76 0 1.37-.196 1.85-.588.48-.387.71-.882.71-1.483 0-.593-.23-1.078-.71-1.456-.48-.379-1.09-.568-1.85-.568-.75 0-1.37.19-1.85.568-.47.378-.71.863-.71 1.456 0 .601.23 1.096.71 1.483.48.392 1.09.588 1.85.588zm0-4.929c.64 0 1.17-.166 1.59-.499.41-.333.61-.759.61-1.278 0-.533-.2-.973-.61-1.32-.41-.346-.94-.519-1.59-.519-.65 0-1.18.173-1.59.52-.41.346-.62.786-.62 1.319 0 .52.21.945.62 1.278.41.333.94.5 1.59.5zm-47.08 24.317l-.53 2.604h1.61l-.14.759h-1.62l-.6 2.912h-.76l.6-2.912h-2.33l-.6 2.912h-.76l.6-2.912h-1.57l.15-.759h1.58l.52-2.604h-1.49l.15-.752h1.49l.6-2.85h.76l-.59 2.85h2.32l.6-2.85h.76l-.59 2.85h1.69l-.14.752h-1.71zm-3.62 2.618h2.34l.52-2.625h-2.33l-.53 2.625zm8.88-5.216h-.03l-1.09.766c-.73.51-1.25.86-1.56 1.052v-.998c.1-.054.54-.362 1.34-.923.79-.542 1.23-.843 1.32-.902h.92V45h-.9v-8.873zm3.29 1.77c.01-.838.31-1.535.91-2.091.6-.552 1.35-.828 2.25-.828.86 0 1.59.26 2.18.78.59.52.89 1.157.89 1.914 0 .538-.15 1.06-.44 1.565-.31.502-.87 1.178-1.69 2.03l-2.74 2.872v.027h5.12V45h-6.43v-.656l3.49-3.685c.7-.743 1.17-1.31 1.4-1.702.24-.392.36-.802.36-1.23 0-.538-.21-.994-.63-1.368-.42-.373-.93-.56-1.54-.56-.63 0-1.16.198-1.58.595-.42.4-.64.902-.65 1.504v.006h-.9v-.007zm11.23 7.26c-1.03 0-1.88-.266-2.54-.8-.65-.533-.98-1.212-.98-2.037 0-.62.21-1.162.61-1.627.41-.465.94-.767 1.59-.909v-.02c-.56-.155-1-.429-1.33-.82a2.1 2.1 0 01-.49-1.388c0-.748.3-1.363.89-1.846.59-.488 1.34-.732 2.25-.732.91 0 1.66.244 2.25.732.58.483.88 1.098.88 1.846 0 .52-.17.977-.49 1.374-.33.396-.77.674-1.33.834v.02c.66.142 1.19.444 1.59.91.41.464.61 1.006.61 1.626 0 .83-.33 1.509-.98 2.037-.65.534-1.5.8-2.53.8zm0-.82c.75 0 1.37-.196 1.85-.588.47-.387.71-.882.71-1.483 0-.593-.24-1.078-.71-1.456-.48-.379-1.1-.568-1.85-.568s-1.37.19-1.85.568c-.48.378-.72.863-.72 1.456 0 .601.24 1.096.71 1.483.48.392 1.1.588 1.86.588zm0-4.929c.64 0 1.17-.166 1.58-.499.41-.332.62-.759.62-1.278 0-.533-.2-.973-.61-1.32-.41-.346-.94-.519-1.59-.519-.65 0-1.19.173-1.6.52-.41.346-.61.786-.61 1.319 0 .52.21.946.62 1.278.41.333.94.5 1.59.5zm8.03 5.75c-.83 0-1.53-.23-2.11-.691-.58-.456-.94-1.06-1.08-1.812h.95c.13.502.39.905.79 1.21.41.315.9.472 1.46.472.88 0 1.56-.39 2.06-1.169.49-.766.74-1.843.77-3.233l-.01-.226h-.01c-.19.556-.55 1.01-1.09 1.36-.54.351-1.15.527-1.82.527-.94 0-1.72-.308-2.34-.923-.62-.62-.93-1.392-.93-2.318 0-.975.32-1.781.97-2.42.64-.638 1.46-.957 2.45-.957 1.38 0 2.39.623 3.02 1.867.44.77.66 1.775.66 3.014 0 1.655-.33 2.951-.99 3.89-.66.939-1.58 1.408-2.75 1.408zm.06-4.39c.71 0 1.3-.232 1.79-.697.48-.465.73-1.03.73-1.695 0-.715-.24-1.32-.72-1.811a2.425 2.425 0 00-1.79-.746c-.7 0-1.29.242-1.77.725s-.72 1.078-.72 1.784c0 .693.23 1.272.7 1.736.47.47 1.07.705 1.78.705zM1385.4 45h-5.96v-9.864h5.96v.847h-5.03v3.548h4.77v.834h-4.77v3.787h5.03V45zm4.84.157c-1.11 0-1.99-.46-2.62-1.38-.63-.907-.95-2.145-.95-3.712 0-1.56.32-2.794.95-3.706.64-.92 1.52-1.38 2.62-1.38 1.12 0 1.99.46 2.63 1.38.63.907.94 2.14.94 3.699 0 1.567-.31 2.807-.94 3.718-.64.92-1.51 1.381-2.63 1.381zm0-.82c.83 0 1.48-.385 1.95-1.155.46-.761.69-1.8.69-3.117 0-1.308-.24-2.343-.7-3.104-.47-.77-1.12-1.155-1.94-1.155-.81 0-1.46.387-1.93 1.162-.47.765-.7 1.795-.7 3.09 0 1.321.23 2.363.69 3.124.47.77 1.12 1.155 1.94 1.155z" fill="#18181F"/><path d="M115 0H0v53h115V0z" fill="#F2F2F2"/><path d="M357 0H242v53h115V0z" fill="#121217"/><path d="M598 0H483v53h115V0z" fill="#18181F"/><path d="M839 0H724v53h115V0z" fill="url(#paint0_linear)"/><path d="M1081 0H967v53h114V0z" fill="#2972C6"/><path d="M1322 0h-114v53h114V0z" fill="url(#paint1_linear)"/><defs><linearGradient id="paint0_linear" x1="735.285" y1="0" x2="747.499" y2="59.93" gradientUnits="userSpaceOnUse"><stop stop-color="#F06864"/><stop offset="1" stop-color="#DD5A95"/></linearGradient><linearGradient id="paint1_linear" x1="1208" y1="0" x2="1239.89" y2="77.562" gradientUnits="userSpaceOnUse"><stop stop-color="#2972C6"/><stop offset="1" stop-color="#1289E0"/></linearGradient></defs></svg>